<svg class="main-svg" xmlns="http://www.w3.org/2000/svg" xmlns:xlink="http://www.w3.org/1999/xlink" width="400" height="400" style="" viewBox="0 0 400 400"><rect x="0" y="0" width="400" height="400" style="fill: rgb(255, 255, 255); fill-opacity: 1;"/><defs id="defs-af88ec"><g class="clips"><clipPath id="clipaf88ecxyplot" class="plotclip"><rect width="390" height="340"/></clipPath><clipPath class="axesclip" id="clipaf88ecx"><rect x="5" y="0" width="390" height="400"/></clipPath><clipPath class="axesclip" id="clipaf88ecy"><rect x="0" y="40" width="400" height="340"/></clipPath><clipPath class="axesclip" id="clipaf88ecxy"><rect x="5" y="40" width="390" height="340"/></clipPath></g><g class="gradients"/><g class="patterns"/></defs><g class="bglayer"><rect class="bg" x="5" y="40" width="390" height="340" style="fill: rgb(229, 236, 246); fill-opacity: 1; stroke-width: 0;"/></g><g class="layer-below"><g class="imagelayer"/><g class="shapelayer"/></g><g class="cartesianlayer"><g class="subplot xy"><g class="layer-subplot"><g class="shapelayer"/><g class="imagelayer"/></g><g class="minor-gridlayer"><g class="x"/><g class="y"/></g><g class="gridlayer"><g class="x"/><g class="y"/></g><g class="zerolinelayer"/><path class="xlines-below"/><path class="ylines-below"/><g class="overlines-below"/><g class="xaxislayer-below"/><g class="yaxislayer-below"/><g class="overaxes-below"/><g class="plot" transform="translate(5,40)" clip-path="url(#clipaf88ecxyplot)"><g class="scatterlayer mlayer"><g class="trace scatter trace16e50a" style="stroke-miterlimit: 2; opacity: 1;"><g class="fills"/><g class="errorbars"/><g class="lines"><path class="js-line" d="M228.47,104.42L154.26,141.79" style="vector-effect: non-scaling-stroke; fill: none; stroke: rgb(136, 136, 136); stroke-opacity: 1; stroke-width: 1.5px; opacity: 1;"/><path class="js-line" d="M228.47,104.42L308.4,106.98" style="vector-effect: non-scaling-stroke; fill: none; stroke: rgb(136, 136, 136); stroke-opacity: 1; stroke-width: 1.5px; opacity: 1;"/><path class="js-line" d="M308.4,106.98L355.13,159.11" style="vector-effect: non-scaling-stroke; fill: none; stroke: rgb(136, 136, 136); stroke-opacity: 1; stroke-width: 1.5px; opacity: 1;"/><path class="js-line" d="M308.4,106.98L358,59.71" style="vector-effect: non-scaling-stroke; fill: none; stroke: rgb(136, 136, 136); stroke-opacity: 1; stroke-width: 1.5px; opacity: 1;"/><path class="js-line" d="M154.26,141.79L90.21,216.35" style="vector-effect: non-scaling-stroke; fill: none; stroke: rgb(136, 136, 136); stroke-opacity: 1; stroke-width: 1.5px; opacity: 1;"/><path class="js-line" d="M154.26,141.79L152.71,58.95" style="vector-effect: non-scaling-stroke; fill: none; stroke: rgb(136, 136, 136); stroke-opacity: 1; stroke-width: 1.5px; opacity: 1;"/><path class="js-line" d="M90.21,216.35L32,222.03" style="vector-effect: non-scaling-stroke; fill: none; stroke: rgb(136, 136, 136); stroke-opacity: 1; stroke-width: 1.5px; opacity: 1;"/><path class="js-line" d="M90.21,216.35L72.95,300.5" style="vector-effect: non-scaling-stroke; fill: none; stroke: rgb(136, 136, 136); stroke-opacity: 1; stroke-width: 1.5px; opacity: 1;"/><path class="js-line" d="M228.47,104.42L198.12,35.75" style="vector-effect: non-scaling-stroke; fill: none; stroke: rgb(136, 136, 136); stroke-opacity: 1; stroke-width: 1.5px; opacity: 1;"/><path class="js-line" d="M198.12,35.75L152.71,58.95" style="vector-effect: non-scaling-stroke; fill: none; stroke: rgb(136, 136, 136); stroke-opacity: 1; stroke-width: 1.5px; opacity: 1;"/></g><g class="points"/><g class="text"/></g><g class="trace scatter trace115a52" style="stroke-miterlimit: 2; opacity: 1;"><g class="fills"/><g class="errorbars"/><g class="lines"/><g class="points"><path class="point" transform="translate(228.47,104.42)" d="M25,0A25,25 0 1,1 0,-25A25,25 0 0,1 25,0Z" style="opacity: 0.7; stroke-width: 2px; fill: rgb(0, 153, 0); fill-opacity: 1; stroke: rgb(0, 0, 0); stroke-opacity: 1;"/><path class="point" transform="translate(154.26,141.79)" d="M15,0A15,15 0 1,1 0,-15A15,15 0 0,1 15,0Z" style="opacity: 0.7; stroke-width: 2px; fill: rgb(0, 204, 153); fill-opacity: 1; stroke: rgb(0, 0, 0); stroke-opacity: 1;"/><path class="point" transform="translate(308.4,106.98)" d="M15,0A15,15 0 1,1 0,-15A15,15 0 0,1 15,0Z" style="opacity: 0.7; stroke-width: 2px; fill: rgb(0, 204, 153); fill-opacity: 1; stroke: rgb(0, 0, 0); stroke-opacity: 1;"/><path class="point" transform="translate(355.13,159.11)" d="M10,0A10,10 0 1,1 0,-10A10,10 0 0,1 10,0Z" style="opacity: 0.7; stroke-width: 2px; fill: rgb(255, 255, 255); fill-opacity: 1; stroke: rgb(0, 0, 0); stroke-opacity: 1;"/><path class="point" transform="translate(358,59.71)" d="M10,0A10,10 0 1,1 0,-10A10,10 0 0,1 10,0Z" style="opacity: 0.7; stroke-width: 2px; fill: rgb(255, 255, 255); fill-opacity: 1; stroke: rgb(0, 0, 0); stroke-opacity: 1;"/><path class="point" transform="translate(90.21,216.35)" d="M15,0A15,15 0 1,1 0,-15A15,15 0 0,1 15,0Z" style="opacity: 0.7; stroke-width: 2px; fill: rgb(0, 204, 153); fill-opacity: 1; stroke: rgb(0, 0, 0); stroke-opacity: 1;"/><path class="point" transform="translate(152.71,58.95)" d="M10,0A10,10 0 1,1 0,-10A10,10 0 0,1 10,0Z" style="opacity: 0.7; stroke-width: 2px; fill: rgb(255, 255, 255); fill-opacity: 1; stroke: rgb(0, 0, 0); stroke-opacity: 1;"/><path class="point" transform="translate(32,222.03)" d="M10,0A10,10 0 1,1 0,-10A10,10 0 0,1 10,0Z" style="opacity: 0.7; stroke-width: 2px; fill: rgb(255, 255, 255); fill-opacity: 1; stroke: rgb(0, 0, 0); stroke-opacity: 1;"/><path class="point" transform="translate(72.95,300.5)" d="M10,0A10,10 0 1,1 0,-10A10,10 0 0,1 10,0Z" style="opacity: 0.7; stroke-width: 2px; fill: rgb(255, 255, 255); fill-opacity: 1; stroke: rgb(0, 0, 0); stroke-opacity: 1;"/><path class="point" transform="translate(198.12,35.75)" d="M15,0A15,15 0 1,1 0,-15A15,15 0 0,1 15,0Z" style="opacity: 0.7; stroke-width: 2px; fill: rgb(0, 204, 153); fill-opacity: 1; stroke: rgb(0, 0, 0); stroke-opacity: 1;"/></g><g class="text"/></g></g></g><g class="overplot"/><path class="xlines-above crisp" d="M0,0" style="fill: none;"/><path class="ylines-above crisp" d="M0,0" style="fill: none;"/><g class="overlines-above"/><g class="xaxislayer-above"/><g class="yaxislayer-above"/><g class="overaxes-above"/></g></g><g class="polarlayer"/><g class="smithlayer"/><g class="ternarylayer"/><g class="geolayer"/><g class="funnelarealayer"/><g class="pielayer"/><g class="iciclelayer"/><g class="treemaplayer"/><g class="sunburstlayer"/><g class="glimages"/><defs id="topdefs-af88ec"><g class="clips"/></defs><g class="layer-above"><g class="imagelayer"/><g class="shapelayer"/></g><g class="infolayer"><g class="g-gtitle"/><g class="g-xtitle"/><g class="g-ytitle"/><g class="annotation" data-index="0" style="opacity: 1;"><g class="annotation-text-g" transform="rotate(0,233.47,174.42000000000002)"><g class="cursor-pointer" transform="translate(197,165)"><rect class="bg" x="0.5" y="0.5" width="72" height="18" style="stroke-width: 1px; stroke: rgb(0, 0, 0); stroke-opacity: 0; fill: rgb(0, 0, 0); fill-opacity: 0;"/><text class="annotation-text" text-anchor="middle" x="36.609375" y="14" style="font-family: 'Open Sans', verdana, arial, sans-serif; font-size: 12px; fill: rgb(42, 63, 95); fill-opacity: 1; white-space: pre;">Brown bear</text></g></g></g><g class="annotation" data-index="1" style="opacity: 1;"><g class="annotation-text-g" transform="rotate(0,159.26,211.79)"><g class="cursor-pointer" transform="translate(144,202)"><rect class="bg" x="0.5" y="0.5" width="30" height="18" style="stroke-width: 1px; stroke: rgb(0, 0, 0); stroke-opacity: 0; fill: rgb(0, 0, 0); fill-opacity: 0;"/><text class="annotation-text" text-anchor="middle" x="15.296875" y="14" style="font-family: 'Open Sans', verdana, arial, sans-serif; font-size: 12px; fill: rgb(42, 63, 95); fill-opacity: 1; white-space: pre;">claw</text></g></g></g><g class="annotation" data-index="2" style="opacity: 1;"><g class="annotation-text-g" transform="rotate(0,313.4,176.98000000000002)"><g class="cursor-pointer" transform="translate(303,167)"><rect class="bg" x="0.5" y="0.5" width="20" height="18" style="stroke-width: 1px; stroke: rgb(0, 0, 0); stroke-opacity: 0; fill: rgb(0, 0, 0); fill-opacity: 0;"/><text class="annotation-text" text-anchor="middle" x="10.46875" y="14" style="font-family: 'Open Sans', verdana, arial, sans-serif; font-size: 12px; fill: rgb(42, 63, 95); fill-opacity: 1; white-space: pre;">fur</text></g></g></g><g class="annotation" data-index="3" style="opacity: 1;"><g class="annotation-text-g" transform="rotate(0,360.13,229.11)"><g class="cursor-pointer" transform="translate(340,220)"><rect class="bg" x="0.5" y="0.5" width="40" height="18" style="stroke-width: 1px; stroke: rgb(0, 0, 0); stroke-opacity: 0; fill: rgb(0, 0, 0); fill-opacity: 0;"/><text class="annotation-text" text-anchor="middle" x="20.65625" y="14" style="font-family: 'Open Sans', verdana, arial, sans-serif; font-size: 12px; fill: rgb(42, 63, 95); fill-opacity: 1; white-space: pre;">brown</text></g></g></g><g class="annotation" data-index="4" style="opacity: 1;"><g class="annotation-text-g" transform="rotate(0,363,129.71)"><g class="cursor-pointer" transform="translate(347,120)"><rect class="bg" x="0.5" y="0.5" width="32" height="18" style="stroke-width: 1px; stroke: rgb(0, 0, 0); stroke-opacity: 0; fill: rgb(0, 0, 0); fill-opacity: 0;"/><text class="annotation-text" text-anchor="middle" x="16.484375" y="14" style="font-family: 'Open Sans', verdana, arial, sans-serif; font-size: 12px; fill: rgb(42, 63, 95); fill-opacity: 1; white-space: pre;">thick</text></g></g></g><g class="annotation" data-index="5" style="opacity: 1;"><g class="annotation-text-g" transform="rotate(0,95.21,286.35)"><g class="cursor-pointer" transform="translate(83,277)"><rect class="bg" x="0.5" y="0.5" width="24" height="18" style="stroke-width: 1px; stroke: rgb(0, 0, 0); stroke-opacity: 0; fill: rgb(0, 0, 0); fill-opacity: 0;"/><text class="annotation-text" text-anchor="middle" x="12.703125" y="14" style="font-family: 'Open Sans', verdana, arial, sans-serif; font-size: 12px; fill: rgb(42, 63, 95); fill-opacity: 1; white-space: pre;">nail</text></g></g></g><g class="annotation" data-index="6" style="opacity: 1;"><g class="annotation-text-g" transform="rotate(0,157.71,128.95)"><g class="cursor-pointer" transform="translate(141,119)"><rect class="bg" x="0.5" y="0.5" width="33" height="18" style="stroke-width: 1px; stroke: rgb(0, 0, 0); stroke-opacity: 0; fill: rgb(0, 0, 0); fill-opacity: 0;"/><text class="annotation-text" text-anchor="middle" x="17.125" y="14" style="font-family: 'Open Sans', verdana, arial, sans-serif; font-size: 12px; fill: rgb(42, 63, 95); fill-opacity: 1; white-space: pre;">large</text></g></g></g><g class="annotation" data-index="7" style="opacity: 1;"><g class="annotation-text-g" transform="rotate(0,37,292.03)"><g class="cursor-pointer" transform="translate(18,283)"><rect class="bg" x="0.5" y="0.5" width="37" height="18" style="stroke-width: 1px; stroke: rgb(0, 0, 0); stroke-opacity: 0; fill: rgb(0, 0, 0); fill-opacity: 0;"/><text class="annotation-text" text-anchor="middle" x="18.828125" y="14" style="font-family: 'Open Sans', verdana, arial, sans-serif; font-size: 12px; fill: rgb(42, 63, 95); fill-opacity: 1; white-space: pre;">sharp</text></g></g></g><g class="annotation" data-index="8" style="opacity: 1;"><g class="annotation-text-g" transform="rotate(0,77.95,370.5)"><g class="cursor-pointer" transform="translate(72,361)"><rect class="bg" x="0.5" y="0.5" width="11" height="18" style="stroke-width: 1px; stroke: rgb(0, 0, 0); stroke-opacity: 0; fill: rgb(0, 0, 0); fill-opacity: 0;"/><text class="annotation-text" text-anchor="middle" x="5.828125" y="14" style="font-family: 'Open Sans', verdana, arial, sans-serif; font-size: 12px; fill: rgb(42, 63, 95); fill-opacity: 1; white-space: pre;">5</text></g></g></g><g class="annotation" data-index="9" style="opacity: 1;"><g class="annotation-text-g" transform="rotate(0,203.12,105.75)"><g class="cursor-pointer" transform="translate(187,96)"><rect class="bg" x="0.5" y="0.5" width="31" height="18" style="stroke-width: 1px; stroke: rgb(0, 0, 0); stroke-opacity: 0; fill: rgb(0, 0, 0); fill-opacity: 0;"/><text class="annotation-text" text-anchor="middle" x="16.140625" y="14" style="font-family: 'Open Sans', verdana, arial, sans-serif; font-size: 12px; fill: rgb(42, 63, 95); fill-opacity: 1; white-space: pre;">nose</text></g></g></g></g></svg>