<?xml version="1.0" encoding="UTF-8" standalone="no"?>
<!DOCTYPE svg PUBLIC "-//W3C//DTD SVG 1.1//EN" "http://www.w3.org/Graphics/SVG/1.1/DTD/svg11.dtd">
<!-- Created with Vectornator (http://vectornator.io/) -->
<svg height="100%" stroke-miterlimit="10" style="fill-rule:nonzero;clip-rule:evenodd;stroke-linecap:round;stroke-linejoin:round;" version="1.1" viewBox="0 0 1224.3 1181.38" width="100%" xml:space="preserve" xmlns="http://www.w3.org/2000/svg" xmlns:vectornator="http://vectornator.io" xmlns:xlink="http://www.w3.org/1999/xlink">
<defs/>
<g id="Layer-1" vectornator:layerName="Layer 1">
<g opacity="1">
<path d="M349.576 839.885C346.001 843.46 338.234 848.055 333.756 849.846C333.241 850.052 318.122 841.829 316.764 840.471C313.394 842.717 300.429 846.549 299.772 851.018C298.919 856.815 300.137 862.748 299.772 868.596C299.693 869.85 285.252 876.879 283.365 879.143C279.487 883.796 283.196 891.263 282.779 897.307C282.703 898.417 278.892 900.342 278.092 900.822C268.341 906.673 258.851 905.604 250.553 897.307C237.926 905.725 230.169 909.736 217.74 897.307C214.848 899.235 201.427 904.461 200.748 907.854C199.621 913.492 201.385 919.697 200.748 925.432C200.422 928.371 189.143 933.168 186.686 934.807C182.961 937.29 172.605 928.352 169.108 926.604C166.225 925.162 159.66 931.327 157.389 932.463C156.754 932.781 151.067 935.209 150.944 936.565C150.413 942.4 151.628 948.323 150.944 954.143C150.356 959.141 137.462 960.598 135.123 964.69C132.699 968.932 134.741 974.455 134.537 979.338C134.26 985.983 129.271 986.365 124.576 988.713C121.728 990.137 120.856 992.785 116.959 992.229C114.993 991.948 103.156 983.934 102.897 982.854C101.483 976.963 106.189 969.343 102.311 964.69C98.9414 960.646 90.1245 956.546 85.3185 954.143C80.9289 958.532 72.2384 959.7 68.9123 964.69C66.7627 967.914 70.5405 973.022 67.7404 975.822C68.3263 976.701 68.3263 976.701 68.9123 977.58C68.3263 978.166 68.3263 978.166 67.7404 978.752C68.3263 979.631 68.3263 979.631 68.9123 980.51C68.3263 981.096 68.3263 981.096 67.7404 981.682C68.7206 983.642 55.9977 992.815 53.092 992.815C47.8143 992.815 41.4258 985.336 36.6857 983.44C36.0059 983.168 19.1594 992.814 19.1076 993.4C18.5754 999.432 18.9242 1005.51 19.1076 1011.56C19.1208 1012 19.4315 1012.39 19.6935 1012.74C23.559 1017.89 31.8003 1018.4 36.0998 1022.7C35.5138 1023.28 35.5138 1023.28 34.9279 1023.87C35.5138 1024.46 35.5138 1024.46 36.0998 1025.04C34.8026 1026.99 34.2607 1034.92 36.0998 1036.76C35.5138 1037.35 35.5138 1037.35 34.9279 1037.93C35.5138 1038.81 35.5138 1038.81 36.0998 1039.69C34.0851 1041.7 19.1115 1050.19 19.1076 1050.24C18.5754 1056.27 19.7951 1062.38 19.1076 1068.4C18.9193 1070.05 13.8524 1071.44 13.8342 1072.5C13.255 1106.29 13.8342 1140.08 13.8342 1173.87C231.217 1173.87 231.217 1173.87 448.6 1173.87C450.174 1151.83 480.826 1152.75 480.826 1173.28C514.225 1173.58 514.225 1173.58 547.623 1173.87C547.819 1170.74 548.383 1167.62 548.209 1164.49C548.17 1163.8 531.543 1156.1 531.217 1153.95C530.368 1148.35 530.852 1142.61 531.217 1136.96C531.468 1133.07 547.838 1130.61 548.209 1126.41C548.758 1120.18 548.576 1113.9 548.209 1107.66C547.958 1103.4 531.775 1101.86 531.217 1097.11C530.51 1091.1 531.583 1084.99 531.217 1078.95C531.079 1076.67 521.742 1073.5 520.084 1072.5C507.629 1065.03 508.262 1078.36 497.819 1078.36C495.264 1078.36 492.311 1074.73 490.201 1073.67C488.941 1073.04 482.254 1070.14 481.998 1068.4C481.146 1062.6 482.683 1056.64 481.998 1050.82C481.337 1045.2 465.817 1045.21 465.006 1039.69C464.182 1034.09 465.349 1028.35 465.006 1022.7C464.645 1016.75 449.845 1017 449.186 1011.56C448.481 1005.75 449.87 999.806 449.186 993.986C448.536 988.46 432.627 987.768 432.194 982.854C431.661 976.822 432.881 970.705 432.194 964.69C431.654 959.969 417.295 959.52 416.373 954.143C415.416 948.56 417.055 942.773 416.373 937.15C415.977 933.878 399.562 928.008 399.381 926.018C398.851 920.182 398.851 914.275 399.381 908.44C399.828 903.523 415.771 902.422 416.373 897.307C417.058 891.487 417.202 885.529 416.373 879.729C416.036 877.371 401.095 870.896 398.795 868.596C393.818 871.084 388.325 877.487 382.975 878.557C381.344 878.883 375.656 874.166 374.186 873.283C372.644 872.358 366.72 870.216 366.569 868.596C366.022 862.762 367.253 856.837 366.569 851.018C366.432 849.859 351.937 841.655 349.576 839.885Z" fill="#182628" fill-rule="nonzero" opacity="1" stroke="none"/>
<path d="M877.506 839.885C875.426 841.964 860.004 850.205 859.928 851.018C859.381 856.851 859.562 862.748 859.928 868.596C860.079 871.008 876.196 878.207 876.334 879.729C876.865 885.564 876.7 891.459 876.334 897.307C876.285 898.099 860.621 906.938 860.514 907.854C859.829 913.673 860.17 919.582 860.514 925.432C860.893 931.883 876.342 931.176 876.92 937.15C877.466 942.788 877.602 948.52 876.92 954.143C876.182 960.229 860.559 959.913 859.928 965.275C859.22 971.289 860.294 977.396 859.928 983.44C859.789 985.729 854.276 986.851 852.897 987.541C849.577 989.201 847.681 992.229 843.522 992.229C841.127 992.229 829.185 984.923 827.701 983.44C825.519 984.895 811.346 992.821 811.295 993.4C810.763 999.432 811.827 1005.53 811.295 1011.56C810.866 1016.43 794.319 1017.43 793.717 1022.7C792.96 1029.32 797.676 1039.19 791.959 1042.62C790.127 1043.72 779.748 1050.58 777.897 1049.65C775.95 1048.68 762.343 1040.16 762.076 1040.28C758.299 1041.89 755.522 1044.45 752.115 1046.72C750.544 1047.77 745.528 1047.8 745.084 1050.82C744.232 1056.62 745.769 1062.58 745.084 1068.4C744.414 1074.1 728.535 1074.51 728.092 1079.53C727.56 1085.56 728.624 1091.67 728.092 1097.7C727.725 1101.86 711.93 1103.62 711.686 1107.66C711.319 1113.7 712.519 1119.83 711.686 1125.82C711.359 1128.18 700.507 1133.69 698.209 1134.61C691.228 1137.4 686.042 1125.82 679.459 1125.82C679.092 1125.82 661.959 1136.43 661.881 1136.96C661.029 1142.75 662.411 1148.7 661.881 1154.53C661.652 1157.05 655.618 1159.32 653.678 1159.81C651.975 1160.23 651.658 1161.74 650.162 1162.74C645.003 1166.18 634.533 1157.4 630.24 1154.53C621.612 1163.16 613.248 1157.3 613.248 1173.28C913.248 1173.58 913.248 1173.58 1213.25 1173.87C1213.25 1131.88 1213.64 1089.88 1213.25 1047.89C1213.23 1046.01 1208.26 1049.37 1207.97 1049.65C1204.25 1047.79 1191.7 1043.4 1190.98 1039.1C1190.64 1037.02 1192.02 1034.72 1190.98 1032.66C1200.21 1023.44 1179.04 1015.44 1174.58 1010.98C1169.81 1015.74 1163.88 1017.72 1158.17 1021.53C1156.06 1019.42 1142.61 1013.6 1142.35 1011.56C1141.67 1006.33 1142.53 1001.01 1142.35 995.744C1142.18 990.846 1128.64 984.789 1124.77 982.854C1122.52 985.11 1114.48 991.112 1111.3 991.643C1107.18 992.328 1093.79 986.657 1091.96 982.268C1089.63 976.666 1095.21 970.024 1092.55 964.69C1090.17 959.936 1079.32 957.91 1075.55 954.143C1063.11 960.366 1063.81 966.9 1050.36 958.83C1049.08 958.061 1043.61 956.011 1043.33 954.143C1042.48 948.542 1044.01 942.773 1043.33 937.15C1042.77 932.533 1029.72 929.402 1026.92 926.604C1015.74 932.193 1011.6 937.677 999.381 929.533C998.441 928.906 993.653 927.135 993.522 926.018C992.814 920.004 994.209 913.869 993.522 907.854C993.296 905.879 977.254 898.782 977.115 897.307C976.568 891.473 977.944 885.529 977.115 879.729C976.517 875.54 962.934 871.407 960.123 868.596C955.631 873.088 947.321 873.905 943.131 879.143C939.347 883.873 943.296 891.296 942.545 897.307C942.035 901.383 927.793 905.734 924.967 907.854C928.712 911.599 927.103 919.906 926.725 924.26C926.124 931.164 914.914 933.727 910.904 937.736C906.323 933.155 899.58 929.796 893.912 926.018C896.36 921.123 894.888 915.07 894.498 909.611C894.021 902.927 879.258 902.381 878.678 897.307C877.99 891.291 878.312 885.186 878.678 879.143C878.937 874.861 893.057 874.171 893.912 869.182C894.902 863.407 894.413 857.442 893.912 851.604C893.505 846.855 881.153 842.62 877.506 839.885Z" fill="#182628" fill-rule="nonzero" opacity="1" stroke="none"/>
<path d="M481.412 136.76C484.298 134.596 498.452 129.289 498.99 125.627C499.843 119.83 498.306 113.868 498.99 108.049C499.556 103.238 512.508 101.926 514.811 98.088C518.028 92.726 514.644 85.5456 515.397 79.338C515.578 77.8457 528.937 69.963 530.631 69.963C532.82 69.963 547.223 78.1741 547.623 80.5099C548.613 86.285 547.093 92.2527 547.623 98.088C547.814 100.189 560.701 106.654 562.858 107.463C564.775 108.182 580.752 99.7953 581.022 97.502C581.706 91.6828 580.337 85.7432 581.022 79.9239C581.307 77.5019 592.754 71.481 595.084 70.5489C599.688 68.7072 608.378 76.9027 612.076 78.752C618.154 81.791 625.762 67.4308 631.998 70.5489C634.318 71.709 645.714 77.568 646.061 79.9239C646.913 85.7209 645.376 91.6828 646.061 97.502C646.304 99.574 654.12 102.851 655.436 103.947C664.17 111.226 670.497 102.024 678.873 98.6739C679.629 98.3714 694.79 106.925 697.037 108.049C704.94 100.147 712.232 98.0612 721.061 103.947C722.358 104.812 728.459 105.712 728.678 108.049C729.225 113.883 729.043 119.779 728.678 125.627C728.605 126.801 714.802 133.644 712.858 135.588C708.436 140.01 712.662 148.097 712.272 154.338C712.193 155.601 699.165 163.004 697.037 163.713C692.09 165.362 684.521 154.924 678.873 154.924C674.714 154.924 666.124 165.541 662.467 163.713C661.112 163.035 647.279 154.828 647.233 154.338C646.686 148.504 648.061 142.56 647.233 136.76C646.555 132.014 633.916 129.489 630.826 125.627C627.795 121.838 633.506 112.821 630.826 107.463C628.202 102.214 617.622 101.29 613.834 97.502C610.366 99.8142 597.781 103.221 596.842 108.049C595.724 113.801 597.207 119.779 596.842 125.627C596.546 130.355 580.588 131.59 579.85 136.76C579.021 142.56 580.215 148.49 579.85 154.338C579.757 155.825 574.005 158.432 572.819 159.025C570.094 160.388 567.931 162.621 565.201 163.713C560.31 165.669 552.699 154.924 547.623 154.924C543.882 154.924 532.579 161.963 530.631 164.885C527.65 169.356 533.002 178.892 530.631 183.635C533.76 186.764 544.173 193.596 548.209 193.596C553.39 193.596 558.681 184.221 564.029 184.221C569.563 184.221 575.313 194.737 581.022 193.596C583.161 193.168 595.652 183.824 596.842 184.221C602.323 186.048 607.368 192.537 612.662 193.596C615.597 194.183 627.384 186.491 629.654 184.221C634.55 186.669 642.076 193.596 647.233 193.596C650.354 193.596 660.842 185.846 663.053 183.635C667.474 188.056 673.943 190.504 679.459 194.182C687.34 186.301 695.793 182.405 704.654 189.494C707.008 191.377 710.858 189.765 711.686 194.182C712.766 199.944 709.363 206.67 712.272 211.76C713.849 214.52 725.163 221.233 728.092 221.721C734.966 222.866 739.889 212.932 746.256 212.932C750.966 212.932 756.347 221.07 760.904 221.721C765.961 222.443 772.054 215.56 776.139 213.518C780.457 211.358 791.821 219.824 794.889 222.893C797.752 220.506 808.255 212.089 812.467 212.932C815.684 213.575 820.169 218.066 823.014 219.963C824.306 220.825 827.607 220.065 827.701 222.893C827.903 228.947 824.927 236.016 828.287 241.057C830.663 244.62 843.029 246.949 843.522 251.018C844.203 256.641 843.864 262.356 843.522 268.01C843.167 273.855 828.182 273.698 827.701 279.143C827.169 285.177 827.161 291.354 828.287 297.307C829.218 302.226 843.235 307.373 847.037 306.682C849.067 306.313 861.972 298.64 862.272 296.721C863.116 291.318 862.95 285.741 862.272 280.315C861.557 274.597 846.609 273.642 846.451 268.596C846.268 262.736 845.35 256.858 845.865 251.018C846.346 245.569 860.385 245.333 861.1 240.471C861.952 234.674 861.747 228.716 861.1 222.893C860.409 216.677 845.828 216.843 845.279 211.174C844.734 205.536 845.961 199.805 845.279 194.182C844.613 188.683 829.282 187.681 828.873 183.049C828.341 177.018 829.239 170.928 828.873 164.885C828.565 159.798 812.154 158.703 811.881 154.338C811.491 148.097 815.047 140.59 811.295 135.588C808.632 132.037 796.676 130.06 796.061 125.627C795.228 119.63 796.427 113.507 796.061 107.463C795.817 103.45 779.299 101.423 779.069 97.502C778.702 91.2628 779.436 84.9913 779.069 78.752C779.055 78.5287 765.034 69.9768 763.834 69.377C758.898 66.9088 751.036 76.3817 746.842 77.5802C744.03 78.3836 736.809 73.6695 734.537 72.3067C732.757 71.2385 730.152 70.2593 729.85 68.2052C728.997 62.4081 730.534 56.4463 729.85 50.627C729.788 50.0987 715.618 41.6193 714.029 40.6661C710.882 38.7776 700.304 47.5287 697.623 48.8692C693.54 50.9106 684.193 42.452 681.217 40.6661C677.963 38.7137 667.223 49.586 660.709 48.2833C659.388 48.019 647.43 41.7617 647.233 40.0802C646.525 34.0669 647.599 27.9597 647.233 21.9161C647.187 21.1668 631.323 11.9552 629.654 11.9552C627.596 11.9552 613.532 19.7423 613.248 21.9161C612.465 27.9231 614.7 34.3752 612.662 40.0802C611.514 43.2953 599.863 48.8692 596.256 48.8692C591.791 48.8692 586.288 42.7133 582.194 40.6661C577.899 38.5189 569.006 47.7716 564.615 48.8692C559.281 50.2028 553.651 41.88 548.795 40.6661C542.6 39.1174 536.871 50.586 531.217 49.4552C526.888 48.5893 517.648 38.6617 513.639 40.6661C511.998 41.4865 497.866 49.5202 497.819 50.0411C497.27 56.0709 498.185 62.1616 497.819 68.2052C497.529 72.9903 481.064 74.7067 480.826 78.752C480.459 84.9913 481.193 91.2628 480.826 97.502C480.753 98.751 466.081 105.248 464.42 107.463C460.785 112.309 464.458 119.594 465.006 125.627C465.357 129.49 478.033 134.507 481.412 136.76Z" fill="#6f5a2c" fill-rule="nonzero" opacity="1" stroke="none"/>
<g opacity="1">
<path d="M679.459 211.174C676.793 213.84 666.497 221.135 663.053 221.135C659.268 221.135 652.209 214.185 648.99 212.346C645.658 210.442 633.028 218.347 630.24 221.135C627.096 219.038 616.891 211.031 613.248 211.76C607.99 212.812 601.733 218.689 596.842 221.135C594.912 219.205 582.983 210.977 579.85 211.76C574.737 213.038 569.4 221.135 564.029 221.135C558.169 221.135 553.313 211.76 547.037 211.76C541.511 211.76 536.868 221.135 531.217 221.135C525.869 221.135 520.812 213.114 515.397 211.76C512.985 211.157 511.322 213.619 509.537 214.69C506.158 216.717 498.54 218.694 498.404 222.893C498.222 228.557 498.521 234.261 497.819 239.885C497.599 241.639 487.785 246.491 486.1 247.502C476.854 253.05 470.935 237.982 460.319 242.229C457.963 243.171 448.845 248.343 448.6 250.432C447.915 256.251 449.284 262.191 448.6 268.01C448.501 268.851 434.211 277.125 432.194 279.143C427.903 283.433 431.606 291.268 431.022 297.307C430.563 302.042 416.318 302.761 415.787 307.268C415.08 313.281 416.154 319.388 415.787 325.432C415.692 327.007 399.221 333.586 398.795 336.565C397.966 342.365 398.43 348.295 398.795 354.143C398.935 356.385 403.351 358.179 404.654 358.83C408.104 360.555 413.064 365.803 416.959 364.69C421.133 363.497 429.069 354.059 433.365 355.9C437.958 357.869 441.761 362.996 446.842 364.69C451.773 366.333 459.842 357.611 463.834 355.9C468.035 354.1 475.87 363.597 480.24 364.69C485.707 366.056 491.866 357.693 496.647 355.9C500.94 354.291 509.15 363.226 513.053 364.69C517.634 366.407 526.106 357.589 530.045 355.9C533.139 354.574 543.061 363.007 545.865 364.69C549.414 366.819 560.158 357.251 562.858 355.9C565.236 354.711 571.617 360.81 573.99 361.76C574.89 362.12 579.69 363.996 579.85 365.275C580.601 371.283 577.142 378.024 579.85 383.44C581.22 386.181 596.684 392.201 596.842 393.986C597.391 400.212 596.475 406.497 596.842 412.736C596.963 414.8 612.22 419.469 613.248 421.525C614.185 423.399 612.662 426.229 612.662 427.971C612.662 431.492 613.248 434.997 613.248 438.518C613.248 445.647 597.718 444.687 596.842 450.822C596.013 456.623 597.372 462.565 596.842 468.4C596.683 470.154 585.663 476.375 583.951 476.604C571.328 478.287 567.186 463.602 554.069 474.846C552.883 475.862 547.222 477.962 547.037 479.533C546.33 485.546 546.505 491.666 547.037 497.697C547.51 503.053 563.155 503.236 564.029 508.83C564.874 514.233 564.393 519.78 564.029 525.236C563.993 525.788 563.248 526.018 562.858 526.408C564.262 527.813 579.165 535.603 579.264 536.369C579.964 541.793 579.264 547.307 579.264 552.775C579.264 555.441 574.804 558.388 572.819 559.807C563.065 566.774 558.896 557.766 549.967 555.705C542.216 553.916 539.391 562.155 532.389 563.322C527.731 564.099 526.134 560.117 522.428 558.635C521.167 558.13 515.562 556.349 515.397 554.533C514.848 548.503 514.864 542.4 515.397 536.369C515.465 535.6 530.446 528.251 532.389 525.822C534.829 522.772 532.559 518.006 532.389 514.104C532.296 511.957 532.742 509.777 532.389 507.658C532.235 506.736 515.468 498.767 515.397 497.697C515.033 492.241 515.397 486.76 515.397 481.291C515.397 476.29 506.841 474.083 503.678 472.502C501.698 471.512 500.314 468.986 497.819 468.986C492.218 468.986 486.138 479.741 480.24 477.775C476.545 476.544 468.818 467.887 464.42 468.986C463.164 469.301 448.022 479.475 448.014 479.533C447.158 485.527 447.482 491.666 448.014 497.697C448.493 503.129 464.147 503.331 465.006 508.83C465.85 514.233 465.684 519.81 465.006 525.236C464.529 529.05 451.253 533.13 448.6 535.783C446.75 534.303 433.385 526.621 433.365 526.408C432.818 520.574 433.731 514.678 433.365 508.83C433.18 505.862 417.858 499.318 414.615 497.697C411.786 500.527 399.544 503.873 398.795 508.244C397.805 514.019 399.326 519.987 398.795 525.822C398.36 530.606 382.432 531.025 381.803 536.369C381.095 542.382 381.115 548.518 381.803 554.533C382.405 559.803 398.182 560.451 398.795 565.666C399.503 571.679 398.429 577.787 398.795 583.83C398.889 585.381 415.624 592.586 415.787 594.377C416.318 600.212 414.959 606.155 415.787 611.955C416.314 615.642 429.355 620.817 432.194 623.088C429.923 627.63 432.194 633.244 432.194 638.322C432.194 643.099 416.004 647.509 415.787 650.041C415.237 656.463 415.095 662.969 415.787 669.377C415.984 671.2 422.833 674.072 423.99 674.65C426.102 675.706 427.541 677.598 429.85 678.752C435.87 681.762 443.244 669.461 449.772 670.549C451.701 670.87 453.785 673.727 455.631 674.65C457.2 675.435 464.76 677.382 465.006 679.924C465.552 685.562 465.535 691.277 465.006 696.916C464.521 702.091 449.513 702.57 448.6 708.049C447.572 714.217 450.81 721.206 448.014 726.799C450.397 729.182 463.371 732.826 463.834 736.76C464.542 742.773 464.366 748.893 463.834 754.924C463.491 758.813 448.365 760.908 448.014 764.885C447.464 771.111 447.647 777.396 448.014 783.635C448.289 788.313 463.434 789.058 463.834 793.596C464.366 799.627 464.366 805.729 463.834 811.76C463.657 813.766 457.506 815.588 456.217 816.447C441.349 826.359 443.281 811.76 431.608 811.76C428.712 811.76 419.246 818.72 416.959 820.549C416.409 820.989 415.263 821.019 415.201 821.721C414.652 827.947 415.568 834.232 415.201 840.471C414.97 844.407 398.658 846.084 398.209 851.018C397.661 857.047 397.677 863.15 398.209 869.182C398.613 873.755 414.809 875.281 415.201 879.729C415.734 885.76 414.669 891.861 415.201 897.893C415.581 902.194 430.776 903.927 431.022 907.854C431.387 913.702 430.058 919.652 431.022 925.432C432.024 931.448 446.972 931.549 447.428 936.565C447.976 942.594 447.062 948.685 447.428 954.729C447.514 956.156 463.795 964.051 463.834 964.69C464.2 970.733 463.302 976.822 463.834 982.854C464.322 988.388 480.396 989.395 480.826 993.986C481.373 999.82 481.511 1005.75 480.826 1011.56C480.164 1017.19 464.464 1017.34 463.834 1022.7C463.15 1028.52 463.304 1034.44 463.834 1040.28C463.918 1041.19 479.382 1049.89 481.412 1051.41C484.224 1048.6 495.092 1041.38 498.99 1042.03C501.678 1042.48 506.315 1046.53 508.365 1047.89C509.578 1048.7 514.153 1049.71 514.225 1051.99C514.408 1057.85 513.859 1063.72 514.225 1069.57C514.499 1073.97 529.66 1075.17 530.045 1079.53C530.631 1086.17 526.597 1095.29 531.803 1099.46C535.23 1102.2 545.946 1109.08 549.967 1107.07C553.578 1105.27 559.669 1098.87 564.029 1098.87C565.842 1098.87 579.653 1106.57 579.85 1108.24C580.557 1114.26 579.483 1120.36 579.85 1126.41C580.133 1131.09 595.248 1131.87 595.67 1136.37C596.312 1143.22 592.114 1153.34 598.014 1156.88C612.282 1165.44 612.277 1165.38 626.139 1157.46C627.296 1156.8 630.675 1157.69 630.826 1155.12C631.182 1149.07 630.057 1143.01 630.24 1136.96C630.306 1134.8 634.42 1134.94 635.514 1134.03C646.59 1124.8 652.101 1129.65 663.053 1136.96C665.676 1134.33 679.7 1130.09 680.045 1126.41C680.592 1120.57 679.216 1114.63 680.045 1108.83C680.292 1107.1 693.766 1098.45 695.865 1098.87C701.418 1099.98 707.048 1108.24 712.272 1108.24C715.069 1108.24 725.276 1101.83 727.506 1100.04C732.712 1095.88 728.861 1086.77 729.264 1080.12C729.554 1075.33 746.018 1073.62 746.256 1069.57C746.623 1063.33 745.889 1057.06 746.256 1050.82C746.507 1046.56 761.411 1045.65 762.076 1040.86C762.909 1034.86 761.71 1028.74 762.076 1022.7C762.348 1018.21 778.121 1017.09 779.069 1011.56C780.059 1005.79 778.703 999.834 779.069 993.986C779.343 989.593 794.504 988.388 794.889 984.025C795.421 977.994 794.201 971.877 794.889 965.861C795.445 960.991 811.213 960.237 811.881 954.729C812.586 948.912 811.516 942.998 811.881 937.15C812.184 932.297 827.737 931.421 828.287 926.604C828.975 920.588 827.755 914.471 828.287 908.44C828.72 903.54 844.506 902.567 845.279 897.307C846.132 891.51 844.749 885.564 845.279 879.729C845.71 874.989 861.426 873.732 861.686 869.182C862.042 862.939 861.649 856.661 861.1 850.432C860.989 849.18 845.308 840.792 845.279 840.471C844.73 834.245 845.646 827.96 845.279 821.721C845.247 821.169 844.602 820.796 844.108 820.549C839.714 818.352 834.889 814.283 830.045 812.346C824.79 810.244 817.861 819.175 813.053 820.549C809.103 821.678 805.611 817.414 802.506 815.861C801.662 815.439 795.009 812.377 794.889 811.174C794.345 805.732 794.07 800.175 794.889 794.768C795.697 789.434 811.444 788.586 811.881 783.635C812.43 777.409 812.248 771.124 811.881 764.885C811.599 760.097 795.129 758.183 794.889 754.338C794.474 747.699 798.421 739.12 793.717 734.416C791.693 732.392 779.369 728.83 779.069 725.627C778.54 719.988 778.244 714.239 779.069 708.635C779.854 703.297 793.588 703.377 794.303 698.088C795.14 691.894 794.67 685.577 794.303 679.338C794.085 675.641 781.442 670.974 779.069 668.205C775.764 664.35 778.873 658.045 779.069 652.971C779.356 645.484 793.98 646.663 794.889 640.666C795.796 634.677 791.69 627.232 795.475 622.502C799.489 617.484 807.214 617.439 811.295 612.541C815.173 607.887 811.316 600.408 811.881 594.377C812.4 588.84 827.481 588.725 828.287 583.244C829.14 577.447 827.757 571.501 828.287 565.666C828.769 560.368 844.635 560.01 845.279 554.533C845.964 548.714 846.243 542.735 845.279 536.955C844.326 531.234 828.745 530.702 828.287 525.822C827.759 520.183 827.606 514.453 828.287 508.83C828.6 506.251 834.57 504.037 836.49 503.557C839.497 502.805 841.616 498.869 845.279 498.869C848.408 498.869 858.194 505.924 860.514 508.244C862.334 507.334 877.5 498.384 877.506 498.283C877.896 491.847 875.208 484.715 878.092 478.947C873.557 474.413 866.501 472.001 861.1 468.4C857.867 471.633 848.636 477.775 844.108 477.775C841.196 477.775 838.26 474.266 835.904 473.088C834.576 472.424 828.409 469.7 828.287 468.4C827.74 462.567 829.116 456.623 828.287 450.822C827.45 444.964 812.545 445.17 811.881 439.69C811.176 433.873 812.247 427.959 811.881 422.111C811.55 416.816 795.074 416.131 794.889 410.393C794.687 404.143 796.28 397.575 794.303 391.643C788.88 391.643 783.674 382.854 778.483 382.854C774.556 382.854 767.596 389.762 763.834 391.643C758.664 394.228 750.96 384.616 746.842 383.44C740.713 381.688 734.788 392.229 728.678 392.229C722.774 392.229 717.499 381.611 711.1 383.44C705.956 384.909 701.635 392.229 695.865 392.229C690.172 392.229 684.746 381.971 678.873 383.44C674.504 384.532 666.631 394.311 661.295 391.643C659.089 390.54 647.419 384.907 647.233 382.854C646.702 377.018 646.702 371.111 647.233 365.275C647.417 363.243 651.982 362.315 653.092 361.76C657.031 359.791 659.786 355.858 664.811 356.486C668.502 356.948 677.259 366.668 681.217 364.69C684.323 363.137 693.516 354.391 697.037 355.9C701.02 357.607 709.335 366.45 714.029 364.69C715.146 364.271 729.843 354.801 729.85 354.729C730.397 348.895 729.165 342.97 729.85 337.15C730.245 333.793 744.152 327.007 746.842 327.775C747.958 328.094 762.03 336.66 762.076 337.15C762.623 342.984 761.248 348.928 762.076 354.729C762.216 355.705 768.528 360.005 769.694 360.588C771.303 361.393 776.554 365.275 778.483 365.275C783.45 365.275 791.132 353.788 796.061 355.9C800.166 357.66 806.769 365.275 811.295 365.275C812.125 365.275 828.853 354.95 828.873 354.729C829.421 348.699 829.405 342.596 828.873 336.565C828.428 331.523 812.434 330.133 811.881 325.432C811.196 319.612 812.566 313.673 811.881 307.854C811.257 302.553 796.526 302.271 796.061 297.307C795.514 291.473 796.745 285.548 796.061 279.729C795.432 274.382 779.652 273.412 779.069 268.596C778.363 262.779 779.753 256.837 779.069 251.018C778.722 248.07 763.384 241.829 763.248 240.471C762.704 235.029 763.612 229.521 763.248 224.065C762.963 219.794 751.718 214.815 748.014 212.346C743.215 209.147 734.316 219.963 728.678 219.963C722.216 219.963 718.498 212.302 712.858 211.174C708.272 210.257 701.412 221.135 696.451 221.135C692.699 221.135 681.888 213.603 679.459 211.174Z" fill="#cea16e" fill-rule="nonzero" opacity="1" stroke="none"/>
<path d="M399.381 354.143C395.885 355.891 382.505 362.15 382.389 365.861C382.206 371.721 381.62 377.58 381.803 383.44C381.932 387.583 398.389 389.658 398.795 393.986C399.342 399.82 399.161 405.717 398.795 411.565C398.708 412.964 381.965 420.329 381.803 422.111C381.272 427.947 382.632 433.889 381.803 439.69C381.026 445.128 366.695 445.55 365.983 450.822C365.146 457.016 365.616 463.333 365.983 469.572C366.258 474.251 381.402 474.995 381.803 479.533C382.335 485.565 381.457 491.653 381.803 497.697C381.829 498.159 396.866 507.154 399.381 508.83C404.045 504.167 412.181 503.107 415.787 497.697C419.039 492.819 416.373 485.982 416.373 480.119C416.373 474.009 400.76 473.952 399.967 468.4C399.138 462.6 399.436 456.658 399.967 450.822C400.168 448.611 405.827 447.424 406.998 446.721C409.547 445.191 412.748 441.127 416.373 442.033C422.163 443.481 428.325 452.135 434.537 449.65C437.847 448.326 445.932 440.114 449.772 442.033C451.698 442.996 464.231 448.804 464.42 450.822C464.967 456.656 464.237 462.544 464.42 468.4C464.515 471.436 470.229 472.77 472.037 473.674C474.764 475.037 477.307 477.969 480.24 478.947C486.114 480.905 492.564 470.158 498.404 470.158C500.982 470.158 507.817 475.451 510.123 476.604C518.287 480.685 513.251 489.906 514.225 497.697C514.316 498.429 530.344 507.949 531.217 507.658C532.983 507.07 548.165 498.183 548.209 497.697C548.815 491.038 545.476 482.127 550.553 477.775C554.276 474.584 562.202 469.6 566.959 471.33C573.834 473.83 574.83 479.078 583.951 477.775C585.215 477.595 597.911 470.121 598.014 468.986C598.562 462.957 597.482 456.854 598.014 450.822C598.414 446.285 613.621 444.859 614.42 440.861C614.923 438.346 616.27 421.578 612.076 419.182C609.481 417.699 598.279 415.156 598.014 412.15C597.482 406.119 598.701 400.002 598.014 393.986C597.466 389.193 584.113 386.78 581.608 383.44C577.856 378.437 581.412 370.93 581.022 364.69C580.991 364.207 566.093 355.221 564.615 354.729C559.606 353.059 552.959 364.104 547.623 364.104C542.637 364.104 534.978 352.614 530.045 354.729C526.062 356.436 517.747 365.278 513.053 363.518C509.369 362.136 500.714 352.986 496.647 354.729C492.246 356.614 485.459 365.009 480.24 363.518C476.079 362.329 468.009 352.939 463.834 354.729C459.093 356.761 455.034 362.202 449.772 363.518C444.896 364.736 437.425 356.468 433.365 354.729C428.995 352.856 421.382 362.412 416.959 363.518C412.02 364.753 408.471 357.658 399.381 354.143Z" fill="#cea16e" fill-rule="nonzero" opacity="1" stroke="none"/>
</g>
<path d="M663.053 182.463C660.562 184.954 647.869 194.385 644.303 191.838C642.339 190.435 632.695 182.231 630.24 183.049C624.759 184.876 619.714 191.365 614.42 192.424C611.485 193.011 599.698 185.319 597.428 183.049C592.468 185.529 585.029 192.424 579.85 192.424C574.691 192.424 569.342 183.049 564.029 183.049C558.484 183.049 552.775 193.571 547.037 192.424C541.861 191.389 536.627 183.049 531.217 183.049C526.269 183.049 520.289 190.467 515.397 192.424C512.634 193.529 500.638 184.724 498.404 183.049C494.919 185.663 484.943 192.424 480.826 192.424C478.643 192.424 466.07 182.059 464.42 183.049C459.379 186.073 454.825 188.806 449.772 191.838C444.222 195.168 448.418 204.715 448.014 211.174C447.689 216.377 432.263 216.732 431.608 222.307C430.945 227.935 432.707 233.655 432.194 239.299C431.695 244.787 415.645 245.409 415.201 250.432C414.669 256.463 415.734 262.565 415.201 268.596C414.808 273.052 399.383 274.142 398.795 279.143C398.088 285.156 398.108 291.291 398.795 297.307C399.408 302.672 414.213 303.429 414.615 307.854C415.2 314.284 411.221 322.624 415.787 327.19C420.353 322.624 416.226 314.269 416.959 307.854C417.546 302.722 431.264 302.419 432.194 297.307C433.172 291.926 431.83 286.357 432.194 280.9C432.654 273.998 448.715 274.35 449.772 268.01C450.735 262.23 449.406 256.28 449.772 250.432C450.038 246.178 465.768 242.314 468.522 242.815C470.699 243.21 473.941 246.769 476.139 248.088C482.994 252.201 490.389 246.865 496.061 242.815C501.365 239.026 498.78 229.994 498.99 223.479C499.104 219.947 509.397 214.746 512.467 213.518C519.187 210.83 525.15 222.307 531.217 222.307C536.147 222.307 542.129 214.159 547.037 212.932C552.401 211.591 558.738 222.307 564.029 222.307C569.136 222.307 574.789 214.197 579.85 212.932C582.999 212.144 594.828 220.292 596.842 222.307C601.638 219.909 609.077 212.932 614.42 212.932C617.592 212.932 626.775 220.387 629.654 222.307C632.998 219.632 643.325 212.932 647.233 212.932C652.384 212.932 657.599 222.307 663.053 222.307C666.612 222.307 678.146 214.156 680.631 211.174C684.384 206.67 680.795 199.41 680.045 193.596C679.498 189.354 665.917 185.327 663.053 182.463Z" fill="#a59561" fill-rule="nonzero" opacity="1" stroke="none"/>
<path d="M415.787 135.588C410.607 131.703 403.215 130.047 398.795 125.627C394.724 129.698 387.862 132.656 382.975 135.588C382.64 135.789 382.138 135.789 381.803 135.588C376.96 132.682 369.782 129.426 365.983 125.627C363.004 128.606 349.606 132.325 348.99 136.76C348.157 142.757 348.458 148.893 348.99 154.924C349.386 159.411 365.544 160.791 365.983 165.471C366.511 171.11 366.165 176.802 365.983 182.463C365.969 182.899 365.592 183.244 365.397 183.635C367.158 185.396 381.011 191.9 381.217 193.596C381.922 199.413 382.18 205.394 381.217 211.174C380.378 216.207 366.356 217.491 365.983 221.721C365.45 227.752 366.349 233.841 365.983 239.885C365.686 244.786 349.367 246.168 348.99 250.432C348.458 256.463 348.157 262.599 348.99 268.596C349.569 272.764 363.187 276.933 365.983 279.729C368.806 276.906 382.23 272.941 382.975 268.596C383.965 262.821 382.609 256.866 382.975 251.018C383.072 249.463 399.852 241.738 399.967 240.471C400.515 234.441 400.8 228.304 399.967 222.307C399.218 216.914 384.52 216.77 383.561 211.174C382.604 205.591 382.604 199.764 383.561 194.182C384.499 188.707 387.142 191.789 389.42 190.08C397.744 183.837 402.71 185.073 411.1 190.666C413.108 192.005 413.845 193.596 416.373 193.596C416.74 193.596 430.645 185.183 431.608 184.221C437.797 187.315 442.795 190.312 448.6 194.182C451.436 191.346 465.883 186.597 466.178 181.877C466.531 176.224 466.543 170.537 466.178 164.885C465.887 160.382 449.636 159.141 449.186 154.338C448.639 148.504 448.655 142.595 449.186 136.76C449.673 131.397 465.303 131.228 466.178 125.627C467.082 119.838 469.193 113.073 466.178 108.049C463.949 104.334 460.043 104.987 457.389 102.775C449.431 96.1437 442.925 98.6822 435.123 104.533C429.444 108.793 432.415 118.532 432.194 125.627C432.174 126.244 417.417 133.959 415.787 135.588Z" fill="#573f20" fill-rule="nonzero" opacity="1" stroke="none"/>
<path d="M431.608 183.049C428.969 185.687 416.642 193.666 413.444 191.838C409.084 189.347 404.879 185.272 399.967 183.635C398.151 183.03 382.489 192.743 382.389 193.596C381.681 199.609 381.857 205.729 382.389 211.76C382.626 214.447 398.639 220.585 398.795 222.307C399.326 228.142 399.326 234.05 398.795 239.885C398.354 244.735 382.592 245.651 381.803 251.018C380.95 256.815 382.333 262.76 381.803 268.596C381.366 273.4 365.691 274.293 365.397 279.143C365.042 284.995 366.337 290.869 365.983 296.721C365.683 301.668 349.764 302.591 348.99 307.854C348.138 313.651 349.675 319.612 348.99 325.432C348.406 330.397 333.62 330.88 333.17 335.979C332.621 342.204 332.333 348.535 333.17 354.729C334.004 360.903 347.959 359.845 348.99 365.861C349.98 371.637 348.625 377.592 348.99 383.44C349.001 383.602 363.946 392.629 365.983 393.986C368.238 391.731 382.88 384.414 382.975 383.44C383.52 377.802 383.152 372.109 382.975 366.447C382.763 359.669 367.594 359.714 367.154 354.729C366.622 348.697 366.622 342.596 367.154 336.565C367.547 332.117 382.624 330.578 382.975 326.604C383.524 320.378 382.608 314.093 382.975 307.854C383.2 304.022 399.525 302.025 399.967 297.307C400.514 291.473 399.138 285.529 399.967 279.729C400.756 274.203 415.595 274.044 416.373 268.596C417.202 262.795 416.008 256.866 416.373 251.018C416.506 248.89 433.29 241.675 433.365 240.471C433.731 234.623 433.021 228.742 433.365 222.893C433.714 216.967 448.737 216.847 449.186 211.76C449.718 205.729 449.718 199.627 449.186 193.596C448.825 189.503 436.007 186.276 431.608 183.049Z" fill="#6f5a2c" fill-rule="nonzero" opacity="1" stroke="none"/>
<path d="M861.1 393.986C863.115 391.971 878.019 384.222 878.092 383.44C878.639 377.606 877.263 371.662 878.092 365.861C878.891 360.269 892.973 360.523 893.912 354.729C894.913 348.559 894.279 342.218 893.912 335.979C893.606 330.778 878.681 330.436 878.092 325.432C877.407 319.612 878.777 313.673 878.092 307.854C877.935 306.52 863.078 298.699 861.1 296.721C853.343 304.478 844.432 307.093 835.904 301.408C834.458 300.444 829.837 299.878 829.459 297.307C828.607 291.51 830.144 285.548 829.459 279.729C828.93 275.231 815.015 272.579 812.467 269.182C808.715 264.179 812.447 256.659 811.881 250.432C811.49 246.127 796.306 244.4 796.061 240.471C795.695 234.623 797.024 228.672 796.061 222.893C795.537 219.747 780.835 211.76 777.897 211.76C775.537 211.76 769.771 216.752 767.35 218.205C765.843 219.109 760.571 219.871 760.319 221.135C759.51 225.176 761.871 220.882 762.076 224.065C762.441 229.717 761.548 235.417 762.076 241.057C762.43 244.832 777.496 246.74 777.897 251.018C778.444 256.851 777.068 262.795 777.897 268.596C778.32 271.561 794.78 277.994 794.889 279.729C795.254 285.577 794.204 291.487 794.889 297.307C795.191 299.871 810.624 306.89 810.709 307.854C811.258 314.079 810.342 320.364 810.709 326.604C810.917 330.138 827.176 332.683 827.701 337.15C828.386 342.97 827.336 348.881 827.701 354.729C828.04 360.144 843.342 360.502 844.108 365.861C844.936 371.662 843.742 377.592 844.108 383.44C844.129 383.778 858.918 392.532 861.1 393.986Z" fill="#8c7a49" fill-rule="nonzero" opacity="1" stroke="none"/>
<path d="M547.623 79.338C543.333 83.6282 546.842 91.4474 546.451 97.502C546.152 102.147 531.931 102.465 531.217 107.463C530.388 113.263 531.747 119.206 531.217 125.041C531.153 125.743 516.677 134.344 514.811 135.588C513.408 134.536 499.18 125.627 498.404 125.627C497.528 125.627 480.887 136.336 480.826 136.76C479.942 142.95 477.66 150.507 481.412 155.51C484.252 159.296 493.942 163.24 498.404 165.471C512.276 151.599 517.259 158.492 531.217 165.471C534.108 162.58 542.933 156.331 547.037 155.51C552.833 154.351 558.955 166.134 565.201 164.885C566.609 164.603 569.77 161.751 571.061 160.783C572.497 159.706 580.869 156.603 581.022 154.924C581.57 148.894 580.489 142.791 581.022 136.76C581.455 131.852 597.25 130.821 598.014 125.627C598.866 119.83 597.329 113.868 598.014 108.049C598.215 106.335 612.146 99.7762 614.42 97.502C612.687 94.0351 612.176 83.2411 614.42 78.752C612.024 76.3563 600.529 68.7911 596.842 68.7911C594.68 68.7911 588.52 73.3395 586.881 74.6505C585.771 75.5388 579.914 77.6647 579.85 78.752C579.483 84.9913 580.217 91.2628 579.85 97.502C579.738 99.397 564.411 106.957 562.858 106.291C561.003 105.496 549.008 99.2584 548.795 97.502C548.065 91.4789 551.913 83.6282 547.623 79.338Z" fill="#573f20" fill-rule="nonzero" opacity="1" stroke="none"/>
<path d="M828.287 354.143C824.075 352.92 812.504 361.1 810.709 364.69C808.001 370.105 811.312 376.829 810.709 382.854C810.2 387.945 794.094 389.383 793.717 393.4C793.188 399.04 793.534 404.732 793.717 410.393C793.938 417.256 810.016 416.976 810.709 422.697C811.488 429.122 807.413 437.99 812.467 442.033C814.614 443.751 826.764 447.927 827.115 450.822C827.92 457.46 824.382 466.393 829.459 470.744C839.975 479.757 843.442 478.987 854.069 473.674C855.228 473.094 861.543 470.604 861.686 468.986C862.218 462.952 861.956 456.819 861.1 450.822C860.562 447.056 845.436 442.045 845.279 440.275C844.695 433.649 850.057 423.329 844.108 420.354C842.567 419.583 828.332 412.279 828.287 411.565C827.922 405.717 827.922 399.834 828.287 393.986C828.371 392.648 845.221 384.409 845.279 383.44C846.505 363.213 844.153 358.747 828.287 354.143Z" fill="#a59561" fill-rule="nonzero" opacity="1" stroke="none"/>
<path d="M827.701 926.018C824.086 926.899 811.333 933.035 810.709 937.15C809.861 942.751 811.666 948.56 810.709 954.143C809.643 960.359 794.737 959.74 793.717 965.861C792.754 971.641 794.082 977.592 793.717 983.44C793.411 988.338 778.65 988.864 777.897 993.986C777.044 999.783 778.427 1005.73 777.897 1011.56C777.41 1016.92 761.543 1017.27 760.904 1022.7C760.22 1028.52 760.374 1034.44 760.904 1040.28C761.21 1043.63 767.857 1044.02 769.694 1045.55C777.78 1052.29 783.99 1049.48 791.959 1043.79C797.736 1039.67 794.459 1029.78 794.889 1022.7C794.974 1021.29 812.077 1014.29 812.467 1011.56C813.296 1005.76 812.101 999.834 812.467 993.986C812.786 988.876 827.508 988.738 828.287 983.44C829.197 977.253 825.121 969.692 828.873 964.69C831.227 961.551 844.919 958.808 845.279 954.729C845.812 948.697 845.812 942.596 845.279 936.565C845.177 935.405 830.133 925.425 827.701 926.018Z" fill="#6f5a2c" fill-rule="nonzero" opacity="1" stroke="none"/>
<path d="M910.319 840.471C908.03 842.759 893.058 848.98 892.74 851.604C892.035 857.42 893.271 863.346 892.74 869.182C892.3 874.025 878.193 874.197 877.506 879.143C876.646 885.333 876.972 891.665 877.506 897.893C877.83 901.668 890.319 904.827 892.74 907.854C896.281 912.279 893.529 919.182 893.326 924.846C893.311 925.282 892.936 925.627 892.74 926.018C897.98 931.257 906.758 933.861 910.904 940.08C924.017 926.967 927.897 933.224 927.897 911.955C927.897 910.082 928.141 909.855 926.725 908.44C928.124 906.574 943.538 899.328 943.717 897.893C944.468 891.882 941.594 885.147 944.303 879.729C941.958 877.384 927.734 870.148 927.311 868.596C925.917 863.486 930.207 855.639 927.897 851.018C925.239 845.701 914.908 843.531 910.319 840.471Z" fill="#000000" fill-rule="nonzero" opacity="1" stroke="none"/>
<path d="M811.295 610.783C808.639 613.44 793.793 621.308 793.717 623.674C793.534 629.335 794.082 635.014 793.717 640.666C793.527 643.611 780.786 647.738 778.483 650.041C774.475 654.049 778.106 661.37 777.897 667.033C777.882 667.424 777.802 667.826 777.897 668.205C779.354 674.034 792.569 674.284 793.131 679.338C793.821 685.55 793.665 691.861 793.131 698.088C792.753 702.501 778.844 703.491 777.897 708.635C776.8 714.589 777.53 720.755 777.897 726.799C777.897 726.813 793.402 735.273 794.889 736.76C796.506 735.142 811.874 726.93 811.881 726.799C812.249 720.364 812.249 713.898 811.881 707.463C811.599 702.523 796.202 701.863 795.475 696.916C794.651 691.312 795.11 685.576 795.475 679.924C795.8 674.88 811.464 673.959 811.881 669.377C812.429 663.347 811.349 657.244 811.881 651.213C812.095 648.784 828.004 643.217 828.287 640.666C828.977 634.454 828.977 628.128 828.287 621.916C828.172 620.883 813.425 612.913 811.295 610.783Z" fill="#b7bc94" fill-rule="nonzero" opacity="1" stroke="none"/>
<path d="M877.506 478.947C873.216 483.238 877.064 491.088 876.334 497.111C875.664 502.642 860.304 503.396 859.928 507.658C859.379 513.884 860.295 520.169 859.928 526.408C859.687 530.506 844.737 531.838 844.108 536.369C843.275 542.366 844.474 548.49 844.108 554.533C844.036 555.708 827.138 564.113 827.115 564.494C826.748 570.733 826.937 576.997 827.115 583.244C827.133 583.862 827.506 584.416 827.701 585.002C831.716 585.002 841.362 591.046 844.108 593.791C846.074 592.48 861.037 584.545 861.1 583.83C861.632 577.799 860.568 571.697 861.1 565.666C861.539 560.683 877.318 559.799 878.092 554.533C878.944 548.736 877.407 542.774 878.092 536.955C878.687 531.895 893.555 531.283 893.912 526.994C894.448 520.571 894.605 514.066 893.912 507.658C893.368 502.621 879.093 502.13 878.678 497.697C878.093 491.462 881.934 483.375 877.506 478.947Z" fill="#b7bc94" fill-rule="nonzero" opacity="1" stroke="none"/>
<path d="M629.654 68.7911C613.369 76.9336 613.248 75.6249 613.248 95.7442C613.248 96.5255 612.846 97.4181 613.248 98.088C616.26 103.108 625.829 102.948 629.654 108.049C632.555 111.917 627.941 122.2 629.654 125.627C631.472 129.262 645.896 134.945 646.061 136.76C646.591 142.595 645.878 148.481 646.061 154.338C646.14 156.886 654.293 159.919 656.022 160.783C658.312 161.928 660.177 163.74 662.467 164.885C662.81 165.056 680.436 155.705 681.803 154.338C678.839 151.374 680.631 141.185 680.631 137.346C680.631 131.45 664.667 130.633 664.225 126.213C663.603 119.994 667.02 113.053 664.225 107.463C663.051 105.116 647.323 99.0397 647.233 97.502C646.866 91.2628 647.6 84.9913 647.233 78.752C647.2 78.2006 646.555 77.8272 646.061 77.5802C642.516 75.8077 635.084 69.377 629.654 68.7911Z" fill="#2e1b05" fill-rule="nonzero" opacity="1" stroke="none"/>
<path d="M844.694 154.338C842.588 155.391 827.817 163.877 827.701 164.885C827.014 170.9 826.868 177.052 827.701 183.049C828.442 188.383 843.64 189.192 844.108 194.182C844.654 200.016 843.577 205.925 844.108 211.76C844.576 216.912 860.515 217.923 861.1 222.893C861.784 228.712 860.415 234.652 861.1 240.471C861.598 244.704 874.839 248.351 877.506 251.018C879.434 249.732 895.082 240.496 895.084 240.471C895.631 234.637 895.615 228.728 895.084 222.893C894.54 216.904 878.617 216.779 878.092 211.174C877.545 205.34 878.622 199.431 878.092 193.596C877.905 191.543 862.307 184.234 862.272 183.635C861.905 177.396 862.639 171.124 862.272 164.885C862.233 164.233 846.366 156.011 844.694 154.338Z" fill="#a59561" fill-rule="nonzero" opacity="1" stroke="none"/>
<path d="M729.264 354.143C723.386 354.366 719.501 361.466 714.029 363.518C709.449 365.235 700.976 356.417 697.037 354.729C694.843 353.788 687.633 359.205 685.904 360.588C684.684 361.564 678.962 363.186 678.873 364.69C678.506 370.929 678.506 377.2 678.873 383.44C678.896 383.829 694.476 393.4 696.451 393.4C701.531 393.4 706.215 385.833 711.1 384.611C717.304 383.06 722.998 393.4 729.264 393.4C734.578 393.4 738.983 385.844 743.912 384.611C750.419 382.985 757.293 396.085 763.834 392.815C765.526 391.969 779.019 383.998 779.069 383.44C779.618 377.214 779.436 370.929 779.069 364.69C779.063 364.597 763.362 354.443 762.662 354.143C761.915 353.822 749.343 362.892 746.842 363.518C741.701 364.803 734.312 353.951 729.264 354.143Z" fill="#cea16e" fill-rule="nonzero" opacity="1" stroke="none"/>
<path d="M432.194 925.432C429.694 927.931 415.596 933.207 415.201 936.565C414.494 942.578 414.669 948.697 415.201 954.729C415.417 957.172 430.995 964.243 431.022 964.69C431.389 970.929 430.655 977.2 431.022 983.44C431.109 984.93 447.875 992.509 448.014 993.986C448.561 999.82 447.185 1005.76 448.014 1011.56C448.693 1016.32 461.941 1019.63 465.006 1022.7C468.027 1019.68 481.198 1016.5 481.998 1011.56C482.967 1005.59 482.364 999.444 481.998 993.4C481.91 991.95 465.382 984.823 465.006 982.268C464.154 976.471 465.691 970.509 465.006 964.69C464.443 959.9 449.029 958.86 448.6 954.143C448.052 948.113 448.966 942.022 448.6 935.979C448.573 935.537 433.876 926.778 432.194 925.432Z" fill="#a59561" fill-rule="nonzero" opacity="1" stroke="none"/>
<path d="M415.787 440.275C413.08 441.178 399.294 447.748 398.795 450.822C397.795 456.992 398.428 463.333 398.795 469.572C399.043 473.783 414.394 475.112 415.201 480.119C416.166 486.1 413.619 492.308 414.615 498.283C414.879 499.866 418.632 499.685 419.889 500.627C423.961 503.681 428.705 505.342 432.194 508.83C433.587 507.436 449.118 498.271 449.186 497.697C449.893 491.684 448.819 485.577 449.186 479.533C449.478 474.715 465.897 473.621 466.178 468.986C466.544 462.94 466.449 456.819 465.592 450.822C465.465 449.931 449.834 440.275 449.186 440.275C443.92 440.275 439.168 446.935 434.537 448.479C428.765 450.403 421.478 443.121 415.787 440.275Z" fill="#cea16e" fill-rule="nonzero" opacity="1" stroke="none"/>
<path d="M547.623 383.44C546.072 383.75 530.684 392.819 530.631 393.4C530.1 399.239 531.572 405.127 531.217 410.979C531.063 413.52 514.872 419.059 513.639 421.525C511.192 426.42 514.225 432.459 514.225 437.932C514.225 443.082 512.82 437.819 514.225 442.033C517.974 442.033 530.008 451.72 531.803 450.822C534.361 449.543 547.909 442.749 548.209 440.275C548.914 434.459 547.679 428.533 548.209 422.697C548.707 417.223 564.636 416.371 565.201 411.565C565.886 405.745 565.886 399.806 565.201 393.986C564.739 390.053 551.311 385.956 547.623 383.44Z" fill="#cea16e" fill-rule="nonzero" opacity="1" stroke="none"/>
<path d="M399.381 296.721C397.478 297.672 381.818 307.722 381.803 307.854C381.115 313.869 382.335 319.986 381.803 326.018C381.472 329.771 366.326 332.087 365.983 335.979C365.433 342.204 365.146 348.535 365.983 354.729C366.004 354.886 380.793 365.437 382.389 367.033C385.849 363.573 388.872 361.268 392.936 358.83C393.669 358.39 399.858 355.925 399.967 354.729C400.515 348.699 399.435 342.596 399.967 336.565C400.345 332.278 416.274 330.08 416.373 326.604C416.557 320.158 416.499 313.676 415.787 307.268C415.553 305.158 403.985 299.985 399.381 296.721Z" fill="#8c7a49" fill-rule="nonzero" opacity="1" stroke="none"/>
<path d="M680.631 669.377C677.461 663.036 681.645 655.428 679.459 648.869C674.488 648.869 670.124 643.143 665.397 641.252C661.745 639.791 649.426 646.676 646.647 649.455C642.54 647.402 633.562 639.767 629.069 640.666C626.395 641.201 624.314 644.638 621.451 645.354C620.513 645.588 613.414 649.403 613.248 650.627C612.385 657.014 612.881 663.528 613.248 669.963C613.305 670.964 630.21 679.149 631.998 678.752C638.207 677.372 641.143 671.135 648.404 671.135C652.603 671.135 657.414 677.2 661.295 678.752C665.073 680.263 678.286 671.722 680.631 669.377Z" fill="#cea16e" fill-rule="nonzero" opacity="1" stroke="none"/>
<path d="M431.608 68.7911C430.025 69.5824 415.24 78.3148 415.201 78.752C414.652 84.9779 415.018 91.2547 415.201 97.502C415.214 97.9386 415.525 98.3245 415.787 98.6739C418.683 102.535 427.995 105.486 432.194 108.635C433.852 106.976 448.068 98.1153 449.186 98.6739C453.422 100.792 460.653 108.049 465.006 108.049C465.274 108.049 481.92 98.0682 481.998 97.502C482.858 91.3115 482.365 84.9913 481.998 78.752C481.901 77.0938 475.839 75.0867 474.967 74.6505C472.057 73.1957 467.063 67.4696 463.248 69.377C459.208 71.3969 451.755 78.9838 446.842 77.5802C442.279 76.2765 437.973 69.377 431.608 68.7911Z" fill="#8c7a49" fill-rule="nonzero" opacity="1" stroke="none"/>
<path d="M810.709 211.76C807.981 213.124 794.974 219.497 794.889 222.307C794.705 228.359 794.201 234.455 794.889 240.471C795.449 245.369 810.245 246.218 810.709 251.018C811.255 256.655 810.527 262.349 810.709 268.01C810.862 272.761 825.385 276.826 828.287 279.729C830.555 277.461 845.075 270.438 845.279 268.596C845.948 262.575 845.401 256.448 844.694 250.432C844.297 247.063 832.119 243.131 829.459 240.471C825.314 236.325 829.069 228.752 828.873 222.893C828.77 219.801 815.386 213.219 810.709 211.76Z" fill="#573f20" fill-rule="nonzero" opacity="1" stroke="none"/>
<path d="M678.873 136.76C681.556 142.125 675.659 149.366 680.631 154.338C680.045 154.924 680.045 154.924 679.459 155.51C681.348 157.399 694.593 165.863 697.037 164.885C699.754 163.798 702.704 160.88 705.24 159.611C706.383 159.04 713.241 156.055 713.444 154.338C714.128 148.519 712.759 142.579 713.444 136.76C714.017 131.884 729.447 130.644 729.85 126.213C730.398 120.183 730.537 114.064 729.85 108.049C729.436 104.431 714.575 98.088 711.686 98.088C709.047 98.088 696.371 105.45 695.865 108.049C694.747 113.801 696.231 119.779 695.865 125.627C695.858 125.752 680.28 135.353 678.873 136.76Z" fill="#472d0f" fill-rule="nonzero" opacity="1" stroke="none"/>
<path d="M514.225 136.76C517.581 134.522 531.672 129.22 532.389 125.041C533.379 119.266 531.858 113.298 532.389 107.463C532.774 103.228 547.238 102.323 547.623 98.088C548.189 91.8606 545.413 84.9309 548.209 79.338C545.097 76.2258 534.992 68.7911 530.631 68.7911C527.543 68.7911 524.177 73.4821 521.256 74.6505C520.542 74.9361 514.351 77.4065 514.225 78.752C513.641 84.9778 517.391 92.4996 513.639 97.502C510.707 101.411 498.839 102.655 497.819 108.049C496.693 113.998 497.286 120.182 497.819 126.213C497.942 127.613 512.363 134.898 514.225 136.76Z" fill="#2e1b05" fill-rule="nonzero" opacity="1" stroke="none"/>
<path d="M135.123 925.432C133.113 927.442 118.224 935.546 118.131 936.565C117.601 942.4 118.497 948.295 118.131 954.143C117.82 959.113 103.09 960.886 101.139 965.275C98.6785 970.811 101.176 977.407 101.725 983.44C101.805 984.322 116.775 993.762 119.303 993.4C124.288 992.688 131.261 986.405 135.709 983.44C134.298 977.794 135.187 973.824 135.709 967.033C136.106 961.877 151.719 958.101 152.115 954.729C152.823 948.715 152.648 942.596 152.115 936.565C152.049 935.813 137.109 927.418 135.123 925.432Z" fill="#353c39" fill-rule="nonzero" opacity="1" stroke="none"/>
<path d="M331.998 240.471C329.926 242.543 315.724 249.516 315.592 251.018C315.042 257.256 313.007 264.758 316.764 269.768C318.633 272.26 333.102 278.6 333.17 279.729C333.536 285.772 332.638 291.861 333.17 297.893C333.248 298.774 347.397 306.805 349.576 308.44C351.776 306.24 367.055 298.401 367.154 297.307C367.685 291.471 367.839 285.548 367.154 279.729C366.537 274.479 350.589 273.291 350.162 268.596C349.632 262.76 350.847 256.837 350.162 251.018C349.664 246.784 336.423 243.138 331.998 240.471Z" fill="#8c7a49" fill-rule="nonzero" opacity="1" stroke="none"/>
<path d="M530.631 11.9552C516.896 16.5335 510.288 23.9098 513.639 40.6661C514.329 44.1169 527.783 47.7789 530.631 50.627C535.973 47.9561 540.683 43.7815 545.865 41.838C550.553 40.08 558.844 48.8911 563.444 50.0411C567.716 51.1093 576.298 43.6138 579.85 41.838C580.344 41.5909 580.989 41.2176 581.022 40.6661C581.389 34.4269 581.389 28.1553 581.022 21.9161C580.916 20.1185 578.484 19.2939 576.92 18.4005C573.985 16.7233 565.692 10.831 562.272 12.5411C559.323 14.0153 549.296 22.1668 546.451 20.7442C542.33 18.6837 536.67 12.5411 530.631 11.9552Z" fill="#a59561" fill-rule="nonzero" opacity="1" stroke="none"/>
<path d="M365.397 183.049C362.245 183.697 349.146 191.882 348.99 193.596C348.46 199.431 349.356 205.326 348.99 211.174C348.656 216.53 333.319 216.519 333.17 221.721C332.969 228.774 328.878 239.184 334.928 242.815C337.508 244.362 345.981 251.018 348.99 251.018C352.827 251.018 357.993 245.464 361.295 243.4C362.127 242.881 367.039 241.744 367.154 240.471C367.703 234.441 366.788 228.35 367.154 222.307C367.442 217.555 382.156 216.428 382.389 212.346C382.757 205.911 382.924 199.433 382.389 193.01C382.096 189.491 368.201 182.472 365.397 183.049Z" fill="#2e1b05" fill-rule="nonzero" opacity="1" stroke="none"/>
<path d="M531.217 525.822C528.357 527.252 514.629 533.378 514.225 536.369C513.388 542.563 513.691 548.892 514.225 555.119C514.379 556.921 526.519 563.024 528.287 563.908C535.666 567.598 542.112 554.913 549.967 556.877C553.734 557.819 557.108 563.11 561.1 563.908C566.656 565.019 575.845 559.71 579.85 555.705C584.409 551.146 581.556 542.719 580.436 536.369C579.933 533.522 567.61 527.211 565.201 526.408C562.039 525.354 550.031 533.375 547.623 535.783C542.92 531.08 535.72 530.325 531.217 525.822Z" fill="#cea16e" fill-rule="nonzero" opacity="1" stroke="none"/>
<path d="M415.787 592.619C411.221 597.185 415.183 605.523 414.615 611.955C414.242 616.184 399.48 617.12 398.795 621.916C397.939 627.91 397.962 634.083 398.795 640.08C399.279 643.562 414.522 649.04 414.615 650.627C415.006 657.268 411.084 665.845 415.787 670.549C420.491 665.845 416.569 657.268 416.959 650.627C417.165 647.132 429.582 643.864 431.608 641.838C432.194 642.131 432.194 642.131 432.779 642.424C433.658 641.545 433.658 641.545 434.537 640.666C429.738 635.867 436.287 628.935 432.779 623.674C429.691 619.041 426.125 617.572 421.647 614.885C420.641 614.282 417.092 613.081 416.959 611.955C416.205 605.542 420.353 597.185 415.787 592.619Z" fill="#b7bc94" fill-rule="nonzero" opacity="1" stroke="none"/>
<path d="M431.022 678.752C433.982 684.673 428.655 693.174 432.779 698.674C434.823 701.398 447.041 704.763 447.428 708.049C448.16 714.268 444.172 722.371 448.6 726.799C453.028 722.371 449.04 714.268 449.772 708.049C450.394 702.756 465.172 702.616 466.178 696.916C467.162 691.338 466.859 685.547 466.178 679.924C465.807 676.862 459.948 675.44 457.975 674.65C455.128 673.512 452.677 670.539 449.772 669.377C446.852 668.209 432.905 676.868 431.022 678.752Z" fill="#dcba8a" fill-rule="nonzero" opacity="1" stroke="none"/>
<path d="M663.053 563.908C658.487 568.474 662.614 576.829 661.881 583.244C661.275 588.55 646.915 587.982 646.061 593.791C645.208 599.588 645.878 605.513 646.061 611.369C646.164 614.677 659.806 620.506 662.467 622.502C667.739 618.987 675.152 616.981 679.459 611.955C682.685 608.191 676.445 597.978 681.217 593.205C679.735 591.723 664.35 584.621 664.225 583.244C663.64 576.814 667.619 568.474 663.053 563.908Z" fill="#cea16e" fill-rule="nonzero" opacity="1" stroke="none"/>
<path d="M861.1 221.721C856.672 226.149 860.319 234.221 859.928 240.471C859.666 244.664 845.022 245.755 844.694 251.018C844.34 256.671 844.517 262.349 844.694 268.01C844.811 271.778 858.122 278.33 861.1 280.315C863.893 277.521 877.972 271.836 878.092 268.01C878.275 262.153 878.622 256.267 878.092 250.432C877.713 246.26 862.668 244.704 862.272 240.471C861.687 234.236 865.528 226.149 861.1 221.721Z" fill="#8c7a49" fill-rule="nonzero" opacity="1" stroke="none"/>
<path d="M861.1 868.596C858.299 871.396 844.843 875.314 844.108 879.729C843.112 885.701 843.741 891.849 844.108 897.893C844.365 902.143 858.808 903.45 859.342 907.854C860.095 914.07 856.086 922.176 860.514 926.604C864.942 922.176 861.295 914.104 861.686 907.854C861.712 907.432 877.304 900.177 877.506 897.893C878.038 891.861 877.689 885.78 877.506 879.729C877.422 876.941 863.757 869.924 861.1 868.596Z" fill="#472d0f" fill-rule="nonzero" opacity="1" stroke="none"/>
<path d="M613.248 478.361C606.791 478.361 612.644 491.265 612.076 497.697C611.849 500.271 598.827 505.928 596.842 508.244C593.283 512.396 596.647 519.185 596.842 524.65C596.967 528.16 610.768 536.983 613.834 536.369C616.419 535.852 619.696 533.087 622.037 531.682C622.556 531.371 630.782 527.167 630.826 526.408C631.194 520.166 630.95 513.871 630.24 507.658C629.927 504.914 614.535 499.595 614.42 497.697C614.029 491.252 619.705 478.361 613.248 478.361Z" fill="#cea16e" fill-rule="nonzero" opacity="1" stroke="none"/>
<path d="M398.795 811.76C393.941 811.312 389.568 817.252 385.319 819.377C384.951 819.561 381.832 821.226 381.803 821.721C381.436 827.96 381.113 834.259 381.803 840.471C382.117 843.293 387.266 843.265 388.834 844.572C397.723 851.98 400.165 850.69 409.342 844.572C410.837 843.576 416.086 843.054 416.373 840.471C417.063 834.259 416.74 827.96 416.373 821.721C416.344 821.226 413.225 819.561 412.858 819.377C408.187 817.042 404.168 812.255 398.795 811.76Z" fill="#2e1b05" fill-rule="nonzero" opacity="1" stroke="none"/>
<path d="M184.342 897.307C181.174 900.474 175.819 902.447 172.037 904.338C168.888 905.913 168.72 908.827 166.764 910.783C167.35 911.369 167.35 911.369 167.936 911.955C167.35 912.834 167.35 912.834 166.764 913.713C167.35 914.299 167.35 914.299 167.936 914.885C165.465 917.355 165.465 921.203 167.936 923.674C167.659 924.228 166.66 926.086 166.764 926.604C166.811 926.839 184.099 936.73 184.928 936.565C187.543 936.041 201.605 928.269 201.92 925.432C202.431 920.83 202.339 911.621 201.92 907.854C201.874 907.441 186.089 898.18 184.342 897.307Z" fill="#353c39" fill-rule="nonzero" opacity="1" stroke="none"/>
<path d="M496.647 1040.86C493.193 1042.17 481.227 1047.21 480.826 1050.82C478.842 1068.68 481.792 1073.24 496.061 1078.95C498.159 1079.79 515.344 1070.42 515.397 1069.57C515.799 1063.14 518.388 1055.6 514.811 1050.24C512.611 1046.94 500.652 1039.34 496.647 1040.86Z" fill="#a59561" fill-rule="nonzero" opacity="1" stroke="none"/>
<path d="M513.053 383.44C510.894 384.022 497.825 392.71 497.819 392.815C497.452 399.054 497.472 405.324 497.819 411.565C497.925 413.486 514.176 423.485 517.74 420.94C520.328 419.091 532.284 414.23 532.389 410.979C532.571 405.317 533.07 399.609 532.389 393.986C532.118 391.752 523.462 388.351 521.842 387.541C518.436 385.838 517.179 382.325 513.053 383.44Z" fill="#cea16e" fill-rule="nonzero" opacity="1" stroke="none"/>
<path d="M415.787 96.9161C412.556 100.148 399.793 102.916 398.795 108.049C397.677 113.801 398.451 119.778 398.795 125.627C399.046 129.885 412.233 133.792 415.201 136.76C417.408 135.105 433.179 127.162 433.365 125.627C434.047 120.004 434.189 114.239 433.365 108.635C432.77 104.583 419.133 99.4257 415.787 96.9161Z" fill="#a59561" fill-rule="nonzero" opacity="1" stroke="none"/>
<path d="M745.67 40.0802C740.573 40.4745 733.353 45.8027 729.264 48.8692C728.822 49.2007 728.109 49.4889 728.092 50.0411C727.908 56.0962 728.311 62.1584 728.678 68.2052C728.895 71.7826 735.877 73.5627 738.053 74.6505C739.957 75.6027 741.693 78.1973 743.912 78.752C745.854 79.2375 763.149 69.912 763.248 68.7911C763.78 62.7598 763.78 56.6583 763.248 50.627C763.224 50.3511 748.067 39.8947 745.67 40.0802Z" fill="#aea97e" fill-rule="nonzero" opacity="1" stroke="none"/>
<path d="M414.029 40.6661C410.672 41.7538 399.303 46.9725 398.795 50.627C397.962 56.6242 397.962 62.794 398.795 68.7911C399.046 70.5993 412.796 79.338 415.201 79.338C418.798 79.338 421.991 74.747 425.162 73.4786C425.855 73.2015 433.237 70.118 433.365 68.7911C433.911 63.1534 433.73 57.4512 433.365 51.7989C433.17 48.7745 428.23 47.4735 426.334 46.5255C422.02 44.3685 418.983 39.0614 414.029 40.6661Z" fill="#b7bc94" fill-rule="nonzero" opacity="1" stroke="none"/>
<path d="M1009.34 897.307C1007.49 899.157 992.403 907.269 992.35 907.854C991.802 913.883 991.517 920.021 992.35 926.018C992.65 928.177 1006.15 936.239 1008.76 936.565C1011.84 936.95 1025.2 928.911 1026.92 927.19C1024.3 921.95 1029.9 911.875 1025.75 906.682C1022.76 902.945 1013.63 899.453 1009.34 897.307Z" fill="#353c39" fill-rule="nonzero" opacity="1" stroke="none"/>
<path d="M828.287 125.627C825.859 128.055 811.079 134.168 810.709 136.76C807.919 156.29 814.332 158.493 828.287 165.471C829.898 163.86 845.225 155.526 845.279 154.924C845.828 148.894 846.112 142.757 845.279 136.76C844.773 133.115 831.473 127.751 828.287 125.627Z" fill="#b7bc94" fill-rule="nonzero" opacity="1" stroke="none"/>
<path d="M497.819 11.9552C496.605 11.5732 480.859 21.5501 480.826 21.9161C480.277 28.1419 480.459 34.4269 480.826 40.6661C480.859 41.2176 481.504 41.5909 481.998 41.838C485.721 43.6995 493.336 50.627 497.819 50.627C509.465 50.627 520.956 33.0354 515.397 21.9161C513.238 17.5992 502.32 13.372 497.819 11.9552Z" fill="#b7bc94" fill-rule="nonzero" opacity="1" stroke="none"/>
<path d="M497.819 411.565C495.719 410.652 480.839 421.306 480.826 421.525C480.459 427.765 480.459 434.036 480.826 440.275C480.903 441.587 498.162 451.236 498.99 450.822C513.151 443.742 515.397 441.713 515.397 423.283C515.397 422.666 515.128 422.055 514.811 421.525C511.783 416.479 503.144 413.879 497.819 411.565Z" fill="#cea16e" fill-rule="nonzero" opacity="1" stroke="none"/>
<path d="M743.912 326.604C738.836 328.639 733.544 331.698 729.264 335.979C724.842 340.4 728.288 348.488 728.678 354.729C728.765 356.125 745.14 365.176 746.842 364.69C751.695 363.303 757.705 358.086 762.076 355.9C762.57 355.653 763.214 355.28 763.248 354.729C763.614 348.881 763.933 342.97 763.248 337.15C762.944 334.569 759.328 334.447 757.975 333.635C753.293 330.826 749.277 324.453 743.912 326.604Z" fill="#cea16e" fill-rule="nonzero" opacity="1" stroke="none"/>
<path d="M728.678 525.822C722.041 526.953 716.655 531.256 712.272 536.369C708.583 540.672 711.497 547.697 711.686 553.361C711.792 556.556 716.154 557.646 718.131 558.635C733.115 566.127 728.704 563.895 742.74 556.877C744.291 556.102 745.69 559.346 746.256 554.533C746.941 548.714 747.219 542.735 746.256 536.955C745.984 535.32 743.988 534.531 742.74 533.44C738.716 529.919 733.965 524.921 728.678 525.822Z" fill="#cea16e" fill-rule="nonzero" opacity="1" stroke="none"/>
<path d="M1107.78 954.729C1101.66 957.79 1096.36 961.561 1090.79 965.275C1092.68 970.968 1088.88 976.532 1090.79 982.268C1092.1 986.207 1097.37 987.319 1100.16 988.713C1101.95 989.608 1103.88 992.457 1106.02 992.815C1109.94 993.468 1123.29 987.566 1125.36 983.44C1126.74 980.671 1126.6 967.443 1125.36 965.275C1123.63 962.258 1119.05 960.673 1115.98 958.83C1114.2 957.762 1111.33 955.315 1107.78 954.729Z" fill="#353c39" fill-rule="nonzero" opacity="1" stroke="none"/>
<path d="M513.639 154.924C511.515 154.802 498.184 162.397 497.819 164.885C496.966 170.682 497.171 176.639 497.819 182.463C498.134 185.301 512.074 194.26 515.397 193.596C527.461 191.183 538.275 177.83 531.803 164.885C529.62 160.52 517.85 155.165 513.639 154.924Z" fill="#8c7a49" fill-rule="nonzero" opacity="1" stroke="none"/>
<path d="M844.694 382.854C839.65 382.466 835.592 388.283 831.217 390.471C830.534 390.812 827.185 392.611 827.115 393.4C826.583 399.432 826.428 405.549 827.115 411.565C827.334 413.479 834.39 416.374 835.319 416.838C847.493 422.925 847.87 421.143 859.928 413.908C865.632 410.486 861.668 400.614 861.1 393.986C860.962 392.374 859.567 391.03 858.17 390.471C853.219 388.49 849.88 383.252 844.694 382.854Z" fill="#573f20" fill-rule="nonzero" opacity="1" stroke="none"/>
<path d="M596.842 11.9552C592.617 11.6043 587.256 16.0401 583.951 18.4005C582.486 19.4471 580.008 20.1224 579.85 21.9161C579.3 28.1419 579.483 34.4269 579.85 40.6661C579.95 42.3717 586.933 44.8023 588.639 45.9395C597.257 51.6853 598.578 48.0577 606.803 44.7677C609.202 43.8078 612.546 43.3015 613.834 40.0802C616.084 34.4556 614.672 27.9687 614.42 21.9161C614.339 19.9647 611.233 19.6508 609.733 18.4005C606.492 15.6998 601.317 12.3268 596.842 11.9552Z" fill="#8c7a49" fill-rule="nonzero" opacity="1" stroke="none"/>
<path d="M877.506 382.854C863.756 389.729 857.612 391.878 859.928 411.565C860.11 413.113 875.341 420.532 877.506 422.697C879.198 421.005 893.878 413.36 893.912 412.736C894.281 406.106 894.281 399.445 893.912 392.815C893.867 391.992 880.043 384.804 877.506 382.854Z" fill="#b7bc94" fill-rule="nonzero" opacity="1" stroke="none"/>
<path d="M382.389 382.854C377.112 383.263 373.87 388.578 368.912 391.057C368.044 391.491 365.459 392.696 365.397 393.4C364.864 399.435 365.465 405.529 365.983 411.565C366.182 413.894 369.056 414.375 370.67 415.666C380.848 423.808 385.941 420.72 395.279 414.494C396.742 413.519 399.575 414.992 399.967 411.565C400.654 405.549 400.499 399.432 399.967 393.4C399.813 391.66 395.69 390.969 394.694 390.471C390.273 388.261 387.501 382.457 382.389 382.854Z" fill="#573f20" fill-rule="nonzero" opacity="1" stroke="none"/>
<path d="M580.436 1125.82C577.053 1127.51 573.362 1129.96 570.475 1132.27C569.224 1133.27 563.027 1134.5 562.858 1136.37C562.309 1142.4 562.17 1148.52 562.858 1154.53C563.003 1155.81 579.518 1165.02 581.608 1164.49C595.687 1160.97 601.521 1150.41 596.256 1134.61C592.661 1134.61 584.264 1129.06 580.436 1125.82Z" fill="#6f5a2c" fill-rule="nonzero" opacity="1" stroke="none"/>
<path d="M349.576 382.854C344.442 382.829 340.839 388.101 336.1 390.471C327.973 394.534 332.49 404.802 333.17 412.736C333.277 413.981 348.996 422.11 351.334 421.525C353.665 420.943 366.865 413.534 367.154 411.565C368.007 405.768 367.839 399.806 367.154 393.986C367.082 393.373 363.965 390.836 363.053 390.471C358.332 388.582 354.811 382.879 349.576 382.854Z" fill="#a59561" fill-rule="nonzero" opacity="1" stroke="none"/>
<path d="M365.983 811.76C364.433 812.276 349.003 821.573 348.99 821.721C348.441 827.947 348.3 834.259 348.99 840.471C349.135 841.768 364.021 849.642 365.983 851.604C367.71 849.876 382.973 841.079 382.975 841.057C383.51 834.634 383.342 828.156 382.975 821.721C382.957 821.409 369.329 813.935 365.983 811.76Z" fill="#657163" fill-rule="nonzero" opacity="1" stroke="none"/>
<path d="M547.623 497.111C542.944 501.79 535.222 502.051 531.217 507.658C528.152 511.949 530.94 518.212 531.217 523.479C531.579 530.363 542.215 533.35 547.623 536.955C551.962 532.616 560.27 531.505 564.029 526.994C568.401 521.748 565.623 514.397 565.201 507.658C565.184 507.381 549.2 498.163 547.623 497.111Z" fill="#cea16e" fill-rule="nonzero" opacity="1" stroke="none"/>
<path d="M861.1 811.76C859.485 811.51 844.12 821.58 844.108 821.721C843.557 828.143 843.572 834.634 844.108 841.057C844.144 841.499 860.719 851.211 861.686 851.018C861.864 850.982 878.072 840.618 878.092 840.471C878.952 834.28 878.459 827.96 878.092 821.721C878.001 820.174 873.158 819.408 872.233 818.791C868.607 816.374 865.513 812.443 861.1 811.76Z" fill="#a59561" fill-rule="nonzero" opacity="1" stroke="none"/>
<path d="M415.201 897.307C412.889 897.141 398.256 907.339 398.209 907.854C397.661 913.883 397.376 920.021 398.209 926.018C398.216 926.067 414.545 937.15 415.201 937.15C415.883 937.15 432.712 926.626 432.779 926.018C433.448 919.997 433.05 913.851 432.194 907.854C431.67 904.192 418.739 897.56 415.201 897.307Z" fill="#8c7a49" fill-rule="nonzero" opacity="1" stroke="none"/>
<path d="M844.694 954.143C838.504 954.944 831.802 959.769 827.701 964.69C823.573 969.643 826.549 977.602 827.115 984.025C827.369 986.896 829.984 985.255 831.217 985.783C835.337 987.549 840.426 994.209 845.279 993.4C848.142 992.923 850.207 989.789 852.897 988.713C854.633 988.018 860.764 985.86 861.1 983.44C861.96 977.249 861.79 970.901 861.1 964.69C860.978 963.591 859.675 962.959 858.756 962.346C854.445 959.472 850.445 953.398 844.694 954.143Z" fill="#353c39" fill-rule="nonzero" opacity="1" stroke="none"/>
<path d="M745.67 154.338C742.818 154.605 729.424 162.479 729.264 164.299C728.68 170.917 726.879 178.279 729.85 184.221C731.143 186.807 743.367 193.596 746.256 193.596C746.869 193.596 763.149 183.06 763.248 182.463C764.211 176.683 763.614 170.733 763.248 164.885C763.206 164.21 748.033 154.117 745.67 154.338Z" fill="#573f20" fill-rule="nonzero" opacity="1" stroke="none"/>
<path d="M348.99 154.338C346.592 156.737 333.419 161.313 333.17 164.299C332.635 170.722 332.477 177.227 333.17 183.635C333.293 184.769 347.969 192.574 349.576 194.182C352.4 191.358 366.435 186.781 367.154 182.463C368.118 176.683 367.52 170.733 367.154 164.885C367.093 163.903 351.022 155.692 348.99 154.338Z" fill="#a59561" fill-rule="nonzero" opacity="1" stroke="none"/>
<path d="M811.295 97.502C809.04 99.757 795.31 103.775 794.889 107.463C794.179 113.673 794.355 119.986 794.889 126.213C794.957 127.013 809.508 135.559 811.295 137.346C813.192 135.448 828.844 126.541 828.873 126.213C829.405 120.182 829.239 114.093 828.873 108.049C828.631 104.05 814.231 99.4591 811.295 97.502Z" fill="#8c7a49" fill-rule="nonzero" opacity="1" stroke="none"/>
<path d="M645.475 1126.41C642.02 1128.16 629.672 1132.85 629.069 1136.96C628.216 1142.75 628.384 1148.71 629.069 1154.53C629.416 1157.49 640.854 1162.39 643.131 1163.91C645.969 1165.8 663.539 1156.82 663.639 1155.12C663.995 1149.07 663.57 1142.99 663.053 1136.96C662.749 1133.41 647.853 1125.2 645.475 1126.41Z" fill="#8c7a49" fill-rule="nonzero" opacity="1" stroke="none"/>
<path d="M547.623 1125.82C541.736 1125.99 536.895 1132.07 531.803 1134.61C526.395 1137.32 529.87 1152.55 530.045 1154.53C530.267 1157.05 544.351 1164.03 546.451 1165.08C547.693 1165.7 564.579 1155.77 564.615 1155.12C564.973 1148.68 564.58 1142.21 564.029 1135.78C563.982 1135.23 561.249 1133.5 561.1 1133.44C556.216 1131.49 552.879 1125.67 547.623 1125.82Z" fill="#353c39" fill-rule="nonzero" opacity="1" stroke="none"/>
<path d="M530.045 640.666C527.572 642.21 514.441 648.681 514.225 650.627C513.535 656.839 513.858 663.138 514.225 669.377C514.339 671.323 526.86 677.746 528.873 678.752C530.799 679.715 548.084 670.801 548.209 669.377C548.758 663.151 548.743 656.854 548.209 650.627C548.083 649.159 531.097 640.009 530.045 640.666Z" fill="#cea16e" fill-rule="nonzero" opacity="1" stroke="none"/>
<path d="M480.826 154.924C478.321 155.759 465.443 162.003 465.006 164.885C464.097 170.884 468.124 178.759 463.834 183.049C466.227 185.442 478.732 194.249 481.998 193.596C484.996 192.996 488.636 189.561 491.373 187.736C493.499 186.319 498.877 186.085 498.99 182.463C499.173 176.606 499.356 170.733 498.99 164.885C498.948 164.205 483.817 155.51 480.826 154.924Z" fill="#6f5a2c" fill-rule="nonzero" opacity="1" stroke="none"/>
<path d="M794.889 68.7911C789.099 67.8783 784.033 75.0981 779.069 77.5802C778.574 77.8272 777.929 78.2006 777.897 78.752C777.53 84.9913 777.206 91.2903 777.897 97.502C778.207 100.292 791.217 105.963 793.717 107.463C794.794 108.109 811.857 98.3747 811.881 98.088C813.453 79.2231 811.071 71.3424 794.889 68.7911Z" fill="#a59561" fill-rule="nonzero" opacity="1" stroke="none"/>
<path d="M448.6 497.111C445.45 500.262 432.206 503.815 431.608 508.244C430.77 514.441 431.484 520.782 432.194 526.994C432.244 527.437 445.985 534.926 448.014 536.955C450.134 535.259 466.019 527.174 466.178 525.822C466.885 519.809 466.544 513.702 466.178 507.658C466.157 507.308 450.393 498.307 448.6 497.111Z" fill="#cea16e" fill-rule="nonzero" opacity="1" stroke="none"/>
<path d="M282.779 841.057C267.537 841.533 265.97 851.784 266.959 868.596C267.01 869.468 267.513 870.322 268.131 870.94C271.089 873.897 278.614 877.646 282.779 879.729C283.129 879.903 283.616 879.93 283.951 879.729C285.909 878.554 300.776 869.771 300.944 868.596C303.502 850.689 298.785 840.556 282.779 841.057Z" fill="#182628" fill-rule="nonzero" opacity="1" stroke="none"/>
<path d="M1157.58 982.854C1153.13 987.309 1140.97 989.651 1141.18 995.744C1141.36 1001.21 1140.65 1006.71 1141.18 1012.15C1141.35 1013.97 1156.1 1020.63 1158.17 1022.7C1161.58 1019.29 1174.32 1016.48 1175.16 1011.56C1178.54 991.855 1170.87 989.496 1157.58 982.854Z" fill="#353c39" fill-rule="nonzero" opacity="1" stroke="none"/>
<path d="M661.295 355.315C659.693 355.469 646.093 364.328 646.061 364.69C645.511 370.915 645.694 377.2 646.061 383.44C646.104 384.167 662.301 394.053 665.397 392.815C680.185 386.899 681.527 381.892 680.045 364.104C679.949 362.945 673.619 360.309 672.428 359.416C669.165 356.969 665.618 354.898 661.295 355.315Z" fill="#cea16e" fill-rule="nonzero" opacity="1" stroke="none"/>
<path d="M382.389 553.947C378.389 554.759 365.961 561.603 365.397 565.666C363.528 579.124 367.598 589.507 380.045 592.619C382.432 593.216 399.901 584.955 399.967 583.83C400.334 577.591 400.501 571.307 399.967 565.08C399.87 563.945 385.038 553.409 382.389 553.947Z" fill="#b7bc94" fill-rule="nonzero" opacity="1" stroke="none"/>
<path d="M365.983 411.565C364.469 413.078 349.027 420.911 348.99 421.525C348.623 427.765 348.457 434.048 348.99 440.275C349.068 441.186 364.436 450.342 366.569 451.408C368.478 449.498 382.893 441.171 382.975 440.275C383.523 434.246 383.153 428.163 382.975 422.111C382.957 421.494 382.584 420.94 382.389 420.354C378.75 420.354 368.718 414.3 365.983 411.565Z" fill="#8c7a49" fill-rule="nonzero" opacity="1" stroke="none"/>
<path d="M465.006 125.627C461.594 129.039 448.857 131.841 448.014 136.76C447.024 142.535 447.329 148.519 448.014 154.338C448.446 158.015 462.84 164.095 465.592 165.471C467.299 163.764 482.579 155.113 482.584 154.924C482.768 148.674 482.708 142.387 481.998 136.174C481.792 134.373 467.109 127.73 465.006 125.627Z" fill="#2e1b05" fill-rule="nonzero" opacity="1" stroke="none"/>
<path d="M844.108 497.697C842.475 498.514 827.131 507.406 827.115 507.658C826.749 513.702 826.282 519.825 827.115 525.822C827.681 529.892 841.17 534.018 844.108 536.955C847.112 534.552 860.564 530.265 861.1 526.408C861.96 520.218 861.79 513.87 861.1 507.658C860.784 504.817 847.719 498.917 844.108 497.697Z" fill="#cda16e" fill-rule="nonzero" opacity="1" stroke="none"/>
<path d="M695.865 11.9552C690.673 11.6579 684.559 17.3773 680.631 20.7442C675.569 25.0827 678.482 34.0112 678.873 40.6661C678.906 41.2176 679.551 41.5909 680.045 41.838C684.676 44.1536 690.741 49.6022 695.865 50.627C696.748 50.8036 712.822 41.0484 712.858 40.6661C713.404 34.8323 713.202 28.9372 712.858 23.088C712.742 21.1255 710.054 19.1424 708.756 18.4005C704.637 16.0469 700.724 12.2333 695.865 11.9552Z" fill="#8c7a49" fill-rule="nonzero" opacity="1" stroke="none"/>
<path d="M695.865 412.15C690.864 411.522 686.968 417.106 682.975 419.768C682.16 420.311 678.989 419.55 678.873 421.525C678.506 427.765 678.506 434.036 678.873 440.275C678.94 441.403 696.157 451.325 697.037 450.822C698.33 450.084 712.849 440.964 712.858 440.861C713.407 434.636 713.391 428.339 712.858 422.111C712.733 420.654 710.818 420.403 709.928 419.768C705.332 416.485 701.308 412.834 695.865 412.15Z" fill="#cea16e" fill-rule="nonzero" opacity="1" stroke="none"/>
<path d="M333.17 354.143C331.757 354.849 316.191 364.542 316.178 364.69C315.629 370.915 315.811 377.2 316.178 383.44C316.258 384.809 331.182 391.998 333.17 393.986C335.207 391.95 350.101 384.133 350.162 383.44C350.712 377.214 350.529 370.929 350.162 364.69C350.012 362.141 338.541 358.342 333.17 354.143Z" fill="#aea97e" fill-rule="nonzero" opacity="1" stroke="none"/>
<path d="M564.029 1097.7C557.884 1097.35 553.631 1103.73 548.209 1105.9C547.696 1106.11 547.069 1106.52 547.037 1107.07C546.67 1113.51 546.67 1119.97 547.037 1126.41C547.071 1127 561.545 1135.89 563.444 1136.37C564.801 1136.71 569.297 1134.38 570.475 1133.44C572.108 1132.13 580.848 1128.38 581.022 1126.41C581.571 1120.18 581.389 1113.9 581.022 1107.66C580.989 1107.11 580.281 1106.83 579.85 1106.49C575.081 1102.67 570.062 1098.04 564.029 1097.7Z" fill="#a59561" fill-rule="nonzero" opacity="1" stroke="none"/>
<path d="M448.6 783.049C444.345 782.583 438.87 788.032 435.709 790.666C435.567 790.784 431.056 793.024 431.022 793.596C430.655 799.639 430.489 805.729 431.022 811.76C431.12 812.879 447.809 822.282 449.772 821.721C463.857 817.696 467.145 809.423 465.006 793.596C464.821 792.227 463.2 791.469 462.076 790.666C458.202 787.899 453.72 783.61 448.6 783.049Z" fill="#cea16e" fill-rule="nonzero" opacity="1" stroke="none"/>
<path d="M695.865 1097.7C689.798 1097.62 686.215 1103.49 681.217 1106.49C680.429 1106.96 678.998 1105.54 678.873 1107.66C678.506 1113.9 678.506 1120.17 678.873 1126.41C679.03 1129.07 694.242 1136.37 696.451 1136.37C698.436 1136.37 712.695 1128.25 712.858 1126.41C713.407 1120.18 713.225 1113.9 712.858 1107.66C712.768 1106.14 710.706 1105.41 709.342 1104.73C705.049 1102.58 700.992 1097.77 695.865 1097.7Z" fill="#353c39" fill-rule="nonzero" opacity="1" stroke="none"/>
<path d="M695.865 183.049C689.913 183.426 685.541 188.892 680.631 191.838C675.158 195.122 678.786 206.787 678.873 209.416C678.991 212.944 692.168 222.307 695.865 222.307C699.222 222.307 713.535 212.831 713.444 210.002C713.267 204.533 713.558 199.023 712.858 193.596C712.592 191.537 709.973 190.524 708.17 189.494C704.21 187.231 700.478 182.756 695.865 183.049Z" fill="#8c7a49" fill-rule="nonzero" opacity="1" stroke="none"/>
<path d="M678.873 97.502C673.317 100.332 666.713 102.34 663.053 107.463C659.42 112.549 662.278 120.011 663.053 126.213C663.471 129.56 668.182 129.173 670.084 130.315C670.945 130.831 678.016 137.378 679.459 136.76C680.908 136.139 696.986 125.984 697.037 125.627C697.894 119.633 697.404 113.507 697.037 107.463C696.971 106.369 692.359 104.831 691.764 104.533C688.021 102.662 682.659 95.5741 678.873 97.502Z" fill="#000000" fill-rule="nonzero" opacity="1" stroke="none"/>
<path d="M793.717 354.729C791.446 355.344 777.927 364.167 777.897 364.69C777.53 370.929 777.53 377.2 777.897 383.44C777.941 384.196 794.28 393.996 797.233 392.815C798.954 392.126 811.716 385.094 811.881 383.44C812.425 377.998 811.881 372.502 811.881 367.033C811.881 362.51 807.931 362.129 804.85 360.588C800.982 358.654 798.031 353.559 793.717 354.729Z" fill="#cea16e" fill-rule="nonzero" opacity="1" stroke="none"/>
<path d="M315.592 897.893C314.183 898.099 299.197 907.73 299.186 907.854C298.639 913.687 298.82 919.584 299.186 925.432C299.442 929.534 315.822 936.579 318.522 935.979C320.375 935.567 333.008 928.059 333.17 926.604C333.86 920.392 333.86 914.065 333.17 907.854C332.831 904.8 318.625 897.448 315.592 897.893Z" fill="#353c39" fill-rule="nonzero" opacity="1" stroke="none"/>
<path d="M663.053 11.3692C660.334 14.0877 646.382 18.2752 646.061 21.9161C645.511 28.1419 645.694 34.4269 646.061 40.6661C646.154 42.2492 661.343 48.9173 663.053 50.627C664.915 49.6961 680.012 41.221 680.045 40.6661C680.412 34.4269 680.412 28.1553 680.045 21.9161C679.997 21.0918 665.265 12.8442 663.053 11.3692Z" fill="#a59561" fill-rule="nonzero" opacity="1" stroke="none"/>
<path d="M382.389 840.471C380.123 842.736 365.687 848.474 365.397 851.018C364.709 857.033 364.864 863.15 365.397 869.182C365.658 872.148 380.163 878.322 382.975 879.729C384.734 877.97 399.341 869.638 399.381 869.182C399.93 862.956 399.748 856.671 399.381 850.432C399.323 849.45 384.25 841.712 382.389 840.471Z" fill="#353c39" fill-rule="nonzero" opacity="1" stroke="none"/>
<path d="M692.936 641.838C689.435 645.339 678.873 647.1 678.873 652.971C678.873 658.049 678.692 663.13 678.873 668.205C678.911 669.256 679.712 670.137 680.045 671.135C685.575 671.135 689.141 677.262 694.108 678.752C696.574 679.492 712.797 670.782 712.858 668.791C713.041 662.739 713.545 656.643 712.858 650.627C712.464 647.186 701.699 644.155 692.936 641.838Z" fill="#cea16e" fill-rule="nonzero" opacity="1" stroke="none"/>
<path d="M1059.15 925.432C1056.85 925.208 1041.59 935.919 1041.57 936.565C1041.39 942.62 1041.45 948.712 1042.15 954.729C1042.64 958.897 1059.83 965.934 1063.83 962.932C1065.62 961.589 1075.94 956.959 1076.14 954.729C1076.69 948.699 1076.67 942.596 1076.14 936.565C1076.07 935.813 1061.94 925.703 1059.15 925.432Z" fill="#353c39" fill-rule="nonzero" opacity="1" stroke="none"/>
<path d="M860.514 926.018C858.151 928.38 844.408 933.158 844.108 936.565C843.575 942.596 843.575 948.697 844.108 954.729C844.485 959.001 857.819 962.58 860.514 965.275C862.617 964.224 877.941 956.009 878.092 954.729C878.799 948.715 878.624 942.596 878.092 936.565C877.768 932.894 864.86 929.192 860.514 926.018Z" fill="#000000" fill-rule="nonzero" opacity="1" stroke="none"/>
<path d="M877.506 267.424C873.049 271.881 864.738 273.706 861.1 278.557C857.467 283.4 860.392 290.708 861.1 296.721C861.643 301.337 873.787 305.651 877.506 308.44C883.544 302.402 894.27 302.387 895.084 292.619C895.441 288.337 895.738 283.976 895.084 279.729C894.65 276.909 880.004 271.171 877.506 267.424Z" fill="#a59561" fill-rule="nonzero" opacity="1" stroke="none"/>
<path d="M861.1 411.565C858.408 411.647 844.123 421.262 844.108 421.525C843.741 427.765 843.417 434.064 844.108 440.275C844.115 440.344 859.378 451.03 860.514 451.408C861.161 451.624 862.665 449.804 862.858 449.65C865.508 447.53 877.682 443.757 878.092 440.275C878.799 434.262 878.624 428.143 878.092 422.111C877.979 420.834 863.632 411.487 861.1 411.565Z" fill="#b0634d" fill-rule="nonzero" opacity="1" stroke="none"/>
<path d="M381.803 497.697C379.397 498.9 366.29 504.887 365.983 507.658C365.292 513.87 365.292 520.197 365.983 526.408C366.407 530.227 379.593 534.159 382.389 536.955C385.785 533.559 399.324 530.321 399.967 525.822C400.796 520.022 400.497 514.08 399.967 508.244C399.513 503.248 384.364 500.259 381.803 497.697Z" fill="#cea16e" fill-rule="nonzero" opacity="1" stroke="none"/>
<path d="M234.147 868.596C228.031 869.964 222.344 873.953 217.74 878.557C213.181 883.116 216.588 891.469 217.154 897.893C217.326 899.834 233.099 908.507 234.733 907.854C237.209 906.863 250.711 900.218 251.139 897.307C251.991 891.51 251.967 885.529 251.139 879.729C250.541 875.54 238.026 867.728 234.147 868.596Z" fill="#657163" fill-rule="nonzero" opacity="1" stroke="none"/>
<path d="M266.959 868.596C263.226 867.739 250.52 875.747 249.967 879.729C249.134 885.726 249.435 891.861 249.967 897.893C250.238 900.97 266.514 907.019 269.889 906.682C271.611 906.509 283.689 898.934 283.951 897.307C284.791 892.101 283.951 886.76 283.951 881.486C283.951 880.505 284.075 879.408 283.365 878.557C279.276 873.649 272.917 869.963 266.959 868.596Z" fill="#353c39" fill-rule="nonzero" opacity="1" stroke="none"/>
<path d="M844.694 937.15C849.276 932.568 856.522 931.181 861.1 926.604C858.216 920.836 861.081 913.691 860.514 907.268C860.35 905.412 846.222 896.884 844.108 897.307C842.496 897.629 839.646 900.569 838.248 901.408C836.858 902.242 827.281 906.035 827.115 907.854C826.567 913.883 826.282 920.021 827.115 926.018C827.369 927.847 842.473 934.93 844.694 937.15Z" fill="#573f20" fill-rule="nonzero" opacity="1" stroke="none"/>
<path d="M679.459 554.533C678.028 555.965 662.484 563.9 662.467 564.494C662.283 570.94 662.341 577.421 663.053 583.83C663.246 585.565 671.557 589.325 673.014 589.69C675.789 590.383 676.75 593.205 680.045 593.205C683.516 593.205 693.94 586.237 695.865 583.83C699.408 579.402 694.703 569.748 697.037 565.08C692.153 560.195 685.022 558.242 679.459 554.533Z" fill="#cea16e" fill-rule="nonzero" opacity="1" stroke="none"/>
<path d="M694.108 755.51C690.732 756.473 679.854 761.43 679.459 764.885C678.772 770.9 678.49 777.072 679.459 783.049C679.797 785.134 682.771 785.78 684.733 786.565C688.075 787.902 690.719 791.88 694.108 793.01C696.708 793.877 712.348 786.104 712.858 783.049C713.853 777.077 713.224 770.928 712.858 764.885C712.719 762.598 707.223 761.482 705.826 760.783C700.825 758.283 700.091 753.804 694.108 755.51Z" fill="#cea16e" fill-rule="nonzero" opacity="1" stroke="none"/>
<path d="M19.6935 1010.98C18.0077 1012.66 13.9192 1012.7 13.8342 1015.08C13.4508 1025.82 13.4575 1036.57 13.8342 1047.31C13.8921 1048.96 18.1431 1049.86 19.1076 1050.82C25.215 1046.75 31.8096 1045.15 37.2717 1039.69C36.6857 1039.1 36.6857 1039.1 36.0998 1038.52C36.6857 1037.64 36.6857 1037.64 37.2717 1036.76C35.668 1035.16 35.7726 1031.81 37.2717 1030.31C35.374 1027.47 38.0632 1026.81 36.0998 1023.87C36.6857 1023.28 36.6857 1023.28 37.2717 1022.7C32.2708 1017.7 25.4407 1015.58 19.6935 1010.98Z" fill="#657163" fill-rule="nonzero" opacity="1" stroke="none"/>
<path d="M1207.39 1011.56C1202.95 1016 1193.49 1016.96 1190.4 1022.11C1188.75 1024.86 1192.57 1029.9 1189.81 1032.66C1192 1037.04 1188.85 1039.45 1193.91 1043.79C1195.39 1045.06 1212.38 1053.95 1212.66 1048.48C1213.24 1037.36 1213.44 1026.21 1213.25 1015.08C1213.24 1014.57 1207.66 1011.77 1207.39 1011.56Z" fill="#353c39" fill-rule="nonzero" opacity="1" stroke="none"/>
<path d="M596.842 1154.53C588.158 1163.22 579.85 1157.52 579.85 1173.28C596.842 1173.58 596.842 1173.58 613.834 1173.87C614.179 1170.07 615.01 1166.85 613.834 1163.32C609.658 1163.32 599.793 1157.48 596.842 1154.53Z" fill="#353c39" fill-rule="nonzero" opacity="1" stroke="none"/>
<path d="M564.029 1154.53C555.323 1163.24 547.037 1156.99 547.037 1173.28C563.736 1173.58 563.736 1173.58 580.436 1173.87C580.67 1170.36 581.547 1166.66 580.436 1163.32C576.481 1163.32 566.796 1157.3 564.029 1154.53Z" fill="#0a1216" fill-rule="nonzero" opacity="1" stroke="none"/>
<path d="M448.014 1173.28C464.713 1173.58 464.713 1173.58 481.412 1173.87C481.637 1170.94 483.311 1167.71 481.998 1165.08C480.362 1161.81 467.525 1155.12 464.42 1155.12C461.324 1155.12 454.312 1160.88 451.529 1162.74C450.358 1163.52 448.273 1163.7 448.014 1165.08C447.51 1167.77 448.014 1170.55 448.014 1173.28Z" fill="#000000" fill-rule="nonzero" opacity="1" stroke="none"/>
<path d="M14.4201 1046.72C14.1271 1059.61 14.1271 1059.61 13.8342 1072.5C24.2672 1072.5 20.8199 1055.55 20.2795 1050.82C20.1282 1049.5 15.6547 1047.34 14.4201 1046.72Z" fill="#353c39" fill-rule="nonzero" opacity="1" stroke="none"/>
<path d="M722.233 1131.68C718.204 1135.71 722.807 1141.93 726.92 1143.99C729.321 1141.59 727.245 1138.65 728.678 1135.78C725.932 1133.04 724.76 1134.21 722.233 1131.68Z" fill="#0a1216" fill-rule="nonzero" opacity="1" stroke="none"/>
</g>
</g>
</svg>
