<?xml version="1.0" standalone="no"?>
<!DOCTYPE svg PUBLIC "-//W3C//DTD SVG 20010904//EN"
 "http://www.w3.org/TR/2001/REC-SVG-20010904/DTD/svg10.dtd">
<svg version="1.0" xmlns="http://www.w3.org/2000/svg"
 width="475.000000pt" height="475.000000pt" viewBox="0 0 475.000000 475.000000"
 preserveAspectRatio="xMidYMid meet">
<metadata>
Created by potrace 1.14, written by Peter Selinger 2001-2017
</metadata>
<g transform="translate(0.000000,475.000000) scale(0.100000,-0.100000)"
fill="#000000" stroke="none">
<path d="M2142 4453 l-113 -107 -51 52 -52 51 -116 -109 -116 -109 -52 51 -51
51 -108 -100 c-59 -56 -135 -129 -168 -162 l-59 -61 52 -53 c29 -29 52 -57 52
-62 0 -5 -23 -33 -52 -62 l-52 -53 54 -55 54 -55 -54 -55 -54 -55 54 -55 54
-55 -54 -55 -54 -55 52 -53 c29 -29 52 -57 52 -62 0 -5 -24 -33 -52 -62 l-52
-53 109 -110 110 -110 55 55 55 55 -55 55 -54 55 54 55 54 55 -52 53 c-29 29
-52 57 -52 62 0 5 23 33 52 62 l52 53 -54 55 -54 55 113 114 c100 100 113 117
101 131 -10 12 -11 18 -1 28 10 9 11 8 6 -4 -10 -28 11 -30 40 -5 17 15 25 28
20 36 -5 9 -4 11 4 6 14 -9 43 12 35 25 -3 5 1 6 8 4 7 -3 38 19 67 49 l55 55
111 -104 112 -104 46 47 c26 26 47 52 47 57 0 6 -5 3 -10 -5 -6 -9 -10 -11
-10 -3 0 7 -7 10 -17 6 -10 -4 -14 -2 -10 4 3 5 0 10 -7 10 -7 0 -13 -6 -13
-13 0 -7 5 -11 10 -7 5 3 7 -3 5 -12 -5 -29 -26 -28 -42 2 -8 15 -15 23 -16
18 0 -6 7 -20 15 -33 14 -20 14 -21 0 -16 -8 3 -15 1 -15 -5 0 -7 7 -14 15
-17 8 -4 12 -10 9 -16 -9 -14 -46 23 -39 39 8 23 -24 62 -48 57 -16 -3 -9 8
28 46 l49 50 38 -37 c20 -20 34 -41 31 -46 -3 -6 -1 -7 4 -4 6 4 43 -23 83
-60 l71 -66 55 54 54 53 53 -52 c29 -29 57 -52 63 -52 5 0 32 22 59 50 l48 49
117 -109 c65 -60 120 -107 124 -105 3 3 4 2 1 -1 -2 -4 68 -81 155 -173 l160
-166 -55 -55 -55 -55 -55 55 -55 54 -55 -54 -55 -54 -55 54 -55 55 -123 -121
c-67 -67 -140 -139 -163 -160 -22 -22 -67 -67 -99 -102 l-59 -63 53 -53 54
-54 -43 -51 c-24 -28 -47 -51 -52 -51 -20 0 -2 -24 97 -126 l104 -109 -54 -55
-55 -56 57 -56 58 -57 55 53 c82 79 130 138 123 150 -3 6 -3 8 2 4 4 -4 14 -3
22 4 11 9 10 15 -8 34 -12 13 -28 20 -38 17 -11 -3 -12 -2 -4 4 9 6 -11 33
-72 93 -82 81 -84 85 -67 103 16 19 16 19 -4 9 -18 -10 -26 -6 -58 27 -20 20
-33 41 -29 45 5 4 3 6 -2 4 -6 -1 -10 2 -10 7 0 6 3 9 8 7 4 -1 6 2 5 7 -2 4
39 54 91 110 l94 102 53 -52 c29 -29 50 -57 47 -63 -4 -6 74 67 172 161 l180
173 52 -52 53 -52 110 109 110 110 -50 50 c-28 28 -50 55 -50 60 0 5 23 33 52
62 l52 53 -52 53 c-29 29 -52 56 -52 60 0 3 23 30 50 59 l50 53 -165 165 -165
165 57 57 58 58 -55 55 -54 55 -58 -57 -58 -58 -168 168 -167 167 -55 -55 -54
-55 -58 57 -58 57 -55 -54 -55 -54 -53 52 c-29 29 -55 52 -57 52 -3 -1 -56
-49 -118 -107z m286 -391 l-57 -59 -56 57 -56 57 58 56 58 56 54 -54 55 -54
-56 -59z m152 -49 c0 -8 -9 0 -50 45 l-45 47 48 -45 c26 -24 47 -45 47 -47z
m-841 -56 c21 -23 21 -25 4 -38 -16 -12 -17 -12 -5 2 10 13 10 18 -1 28 -8 6
-16 9 -19 6 -2 -3 -5 2 -5 10 0 19 -1 19 26 -8z m-108 -40 c-6 -8 -9 -16 -6
-19 3 -2 -2 -5 -10 -5 -13 0 -13 3 2 19 19 21 31 25 14 5z m474 -57 c3 -5 1
-10 -4 -10 -6 0 -11 5 -11 10 0 6 2 10 4 10 3 0 8 -4 11 -10z m95 -3 c0 -2
-10 -12 -22 -23 l-23 -19 19 23 c18 21 26 27 26 19z m895 -137 c27 -27 47 -50
44 -50 -3 0 -27 23 -54 50 -27 28 -47 50 -44 50 3 0 27 -22 54 -50z m-434
-1327 c13 -16 12 -17 -3 -4 -17 13 -22 21 -14 21 2 0 10 -8 17 -17z"/>
<path d="M2104 3948 c-21 -24 -35 -40 -30 -36 5 4 18 2 30 -4 11 -6 18 -7 14
-3 -4 5 -2 15 5 24 11 14 10 15 -8 1 -15 -11 -17 -11 -8 0 18 20 53 23 59 5 4
-8 14 -15 23 -15 14 1 14 2 -2 11 -9 6 -15 14 -12 18 2 5 -4 16 -13 25 -17 15
-21 13 -58 -26z m61 12 c3 -6 -1 -7 -9 -4 -18 7 -21 14 -7 14 6 0 13 -4 16
-10z"/>
<path d="M1875 3278 l-50 -53 50 48 51 47 49 -50 50 -50 -53 -52 -52 -53 -53
53 -53 52 -54 -55 -54 -55 54 -55 54 -55 56 55 55 55 55 -55 55 -55 55 55 55
55 -110 110 -110 110 -50 -52z"/>
<path d="M2200 3165 l-55 -56 54 -49 c30 -28 58 -50 61 -50 3 0 28 23 55 50
l50 50 -55 55 -55 55 -55 -55z"/>
<path d="M2430 3163 l-55 -58 58 55 c53 50 62 60 54 60 -1 0 -27 -26 -57 -57z"/>
<path d="M3200 3055 l-54 -55 57 -58 57 -58 -55 -54 -55 -54 52 -53 c29 -29
57 -53 64 -53 6 0 58 50 114 111 l103 110 -109 110 c-60 60 -111 109 -114 109
-3 0 -30 -25 -60 -55z"/>
<path d="M1975 2940 l-50 -50 55 -55 55 -55 55 55 54 55 -49 50 c-27 27 -54
50 -60 50 -6 0 -33 -23 -60 -50z"/>
<path d="M1415 2830 l-50 -50 57 -57 56 -56 34 34 c18 19 42 44 52 57 l20 23
-49 49 c-27 28 -54 50 -60 50 -6 0 -33 -23 -60 -50z"/>
<path d="M2690 2781 c0 -7 -4 -10 -8 -7 -5 3 -9 -2 -9 -10 0 -13 2 -13 16 0 8
9 12 19 8 22 -4 4 -7 2 -7 -5z"/>
<path d="M3423 2713 l47 -48 -53 -55 -52 -55 57 55 58 54 -47 48 c-26 26 -50
48 -52 48 -3 0 16 -21 42 -47z"/>
<path d="M2641 2727 c-13 -21 -12 -21 5 -5 10 10 16 20 13 22 -3 3 -11 -5 -18
-17z"/>
<path d="M2560 2715 c0 -2 7 -8 15 -15 12 -10 15 -10 15 2 0 8 -7 15 -15 15
-8 0 -15 -1 -15 -2z"/>
<path d="M1417 2602 l-47 -48 58 -54 57 -55 -52 55 -53 55 47 48 c26 26 45 47
42 47 -2 0 -26 -22 -52 -48z"/>
<path d="M2647 2052 l-58 -59 116 -108 116 -109 51 52 52 51 -108 115 c-60 64
-109 116 -110 116 -1 0 -28 -26 -59 -58z"/>
<path d="M1982 2047 l-52 -53 53 -52 53 -52 52 53 52 53 -53 52 -53 52 -52
-53z"/>
<path d="M2760 1715 l-54 -55 54 -55 54 -55 58 57 58 57 -54 53 c-30 29 -56
53 -58 53 -2 0 -28 -25 -58 -55z"/>
<path d="M1310 1375 l-165 -165 -57 57 -58 58 -170 -170 -170 -170 -55 55 -55
55 -163 -163 c-89 -89 -167 -162 -172 -162 -5 0 -32 23 -60 50 l-51 50 -52
-52 -51 -53 49 -52 c28 -29 50 -56 50 -61 0 -4 -29 -37 -65 -72 l-65 -64 0
-258 0 -258 2375 0 2375 0 0 363 c0 338 -1 365 -18 380 -17 16 -21 13 -72 -38
l-55 -55 -222 222 -223 223 -55 -55 -55 -55 -169 169 -168 168 -57 -59 -56
-58 -163 168 c-90 92 -167 167 -172 167 -5 0 -33 -24 -62 -52 l-53 -53 110
-110 109 -110 -110 -114 -109 -115 55 -56 55 -55 -390 -390 -390 -390 -55 55
-55 54 -55 -54 -55 -55 -280 280 -280 280 55 55 55 55 -167 167 -168 168 58
58 57 58 -55 54 -55 54 50 51 c27 28 50 55 50 61 0 10 -91 104 -100 104 -3 0
-79 -74 -170 -165z"/>
<path d="M2535 1490 l-50 -50 55 -55 55 -55 54 54 54 55 -49 50 c-27 28 -54
51 -59 51 -6 0 -33 -23 -60 -50z"/>
</g>
</svg>
